<?xml version="1.0" encoding="UTF-8"?>
<svg version="1.1" xmlns="http://www.w3.org/2000/svg" width="512" height="512">
<path d="M0 0 C6.77245019 4.30756549 9.95415839 9.28434445 12 17 C12.58213986 22.9990004 12.54094562 28.96888324 12.50793457 34.99121094 C12.51254742 36.82413096 12.51890292 38.65704728 12.52684355 40.4899559 C12.54350711 45.51045635 12.53530396 50.53065179 12.52289867 55.55115318 C12.51383837 60.97182636 12.52782279 66.39244755 12.53881836 71.81311035 C12.55659765 82.42578413 12.55276619 93.03834471 12.5411678 103.65102291 C12.53213145 112.27675747 12.53091035 120.90246031 12.53526306 129.52819824 C12.53587599 130.7562165 12.53648893 131.98423477 12.53712043 133.2494657 C12.53839934 135.74422106 12.5396962 138.23897641 12.5410108 140.73373175 C12.55241487 164.12284376 12.53930557 187.51189305 12.51780933 210.90099478 C12.49972318 230.96657976 12.50304268 251.03207291 12.52148438 271.09765625 C12.5428941 294.40351511 12.55131625 317.70931899 12.53903532 341.01518631 C12.53776113 343.50072478 12.53650365 345.98626327 12.53526306 348.47180176 C12.53433741 350.3061637 12.53433741 350.3061637 12.53339306 352.17758346 C12.52994047 360.79218984 12.53576654 369.40676133 12.54518127 378.0213623 C12.55640374 388.5207878 12.55335588 399.02009369 12.5320583 409.5195055 C12.52155134 414.87568558 12.51742018 420.23166628 12.53065491 425.58784485 C12.54259172 430.49296295 12.53599477 435.39769724 12.5147447 440.30278063 C12.51028414 442.07518781 12.51253262 443.84762755 12.52224785 445.62001371 C12.57337595 455.72420812 12.55410979 465.00261773 6.17578125 473.40234375 C0.34877381 478.20321152 -4.98147474 480.56944372 -12.5 481.375 C-20.49205254 480.51870866 -26.57562824 477.37330893 -32.9375 472.625 C-33.66130859 472.09970703 -34.38511719 471.57441406 -35.13085938 471.03320312 C-36.65696924 469.92437868 -38.17955411 468.81068784 -39.69873047 467.69238281 C-42.70233202 465.48349612 -45.72600573 463.30306045 -48.75024414 461.12255859 C-50.25702538 460.03584475 -51.76271352 458.94761375 -53.26733398 457.85791016 C-58.31859532 454.20060738 -63.39864812 450.58703592 -68.5 447 C-75.12922712 442.33863251 -81.70728537 437.61055569 -88.26953125 432.85546875 C-94.01727348 428.69604907 -99.80503258 424.59656759 -105.60986328 420.51733398 C-110.73219942 416.9116111 -115.80837945 413.24596288 -120.875 409.5625 C-127.05158761 405.07451931 -133.30345079 400.71858153 -139.625 396.4375 C-146.20697723 391.97816041 -152.60895594 387.34727584 -158.9309082 382.52807617 C-164.84493246 378.0491865 -170.93947119 373.85856953 -177.09179688 369.71484375 C-177.83107422 369.21597656 -178.57035156 368.71710938 -179.33203125 368.203125 C-180.05506943 367.7289061 -180.7781076 367.25468719 -181.52305603 366.76609802 C-184 365 -184 365 -186.15101624 362.96864319 C-195.01088751 355.09162824 -204.03395618 355.92987304 -215.2265625 356.10546875 C-217.18468589 356.10556755 -219.14281309 356.10169877 -221.10092163 356.09407043 C-226.23038819 356.08268167 -231.35849413 356.11613959 -236.48773193 356.1619873 C-244.70178219 356.22878509 -252.91596247 356.23103847 -261.13022995 356.22530556 C-263.98483045 356.23037249 -266.83858949 356.25719626 -269.69302368 356.28715515 C-271.45631716 356.29379979 -273.21961275 356.29991564 -274.98291016 356.30541992 C-275.76548691 356.31942337 -276.54806366 356.33342682 -277.35435486 356.34785461 C-284.36139503 356.33867089 -290.36496022 354.72291063 -296.25 350.875 C-305.26242437 341.45291998 -304.72421494 332.14930802 -304.6628418 319.77758789 C-304.67126232 317.82205735 -304.68179069 315.86653492 -304.69425964 313.911026 C-304.72125456 308.61752323 -304.7166209 303.32449281 -304.70455909 298.03095174 C-304.69741467 293.60504198 -304.70593599 289.17921885 -304.71446449 284.75331587 C-304.73439983 274.30917836 -304.72886651 263.86526985 -304.70678711 253.42114258 C-304.68442478 242.66060559 -304.70202447 231.90066859 -304.73983639 221.14018828 C-304.77110418 211.88722678 -304.77897603 202.63445069 -304.76788265 193.38144296 C-304.76140607 187.86129911 -304.76334794 182.34150136 -304.78720665 176.82139778 C-304.80850522 171.62954116 -304.80041995 166.43852889 -304.77011299 161.24672508 C-304.76380172 159.34649366 -304.76760728 157.44619623 -304.78252411 155.54601288 C-304.91856349 136.68094705 -304.91856349 136.68094705 -298 129 C-291.30837991 122.81256241 -284.136588 121.68266842 -275.30517578 121.87158203 C-273.56129021 121.89070319 -271.81740386 121.90975304 -270.07351685 121.92874146 C-269.15728672 121.94239872 -268.24105659 121.95605598 -267.29706192 121.97012711 C-262.39095216 122.03496053 -257.48459363 122.03921491 -252.578125 122.0546875 C-246.35892303 122.07816411 -240.14128018 122.11873562 -233.92285156 122.22265625 C-228.87606398 122.30540309 -223.83194635 122.32802713 -218.78454208 122.31283188 C-216.87814499 122.31774655 -214.97166336 122.34376743 -213.06589127 122.39282608 C-198.84339631 122.74398832 -190.53711563 119.61266519 -179.66192913 110.39452648 C-177.52827019 108.60417102 -175.28347072 106.9990743 -173 105.40625 C-171.66613931 104.43822624 -170.33279019 103.46949711 -169 102.5 C-159.69147407 95.75485352 -150.29944762 89.13163023 -140.89550781 82.52050781 C-132.13121284 76.3566527 -123.40724456 70.14258119 -114.73071289 63.85571289 C-108.98426483 59.69705836 -103.19697315 55.59954142 -97.39453125 51.51953125 C-92.2343328 47.88545434 -87.1107106 44.20328599 -82 40.5 C-75.50108142 35.79080083 -68.96600707 31.13751786 -62.39892578 26.52392578 C-57.95999775 23.3999313 -53.5541161 20.23424082 -49.1652832 17.0402832 C-42.76744144 12.38836137 -36.34729153 7.77066169 -29.8125 3.3125 C-29.2251709 2.90241699 -28.6378418 2.49233398 -28.03271484 2.06982422 C-19.09949999 -3.93951325 -9.6266277 -4.63136728 0 0 Z " fill="#000000" transform="translate(312,17)"/>
<path d="M0 0 C0.79019531 0.05542969 1.58039063 0.11085937 2.39453125 0.16796875 C10.02601781 1.92908103 15.19528221 6.25050992 20.53125 11.765625 C21.18581177 12.42584656 21.84037354 13.08606812 22.51477051 13.76629639 C24.5820168 15.85574785 26.63483353 17.9587338 28.6875 20.0625 C30.09541979 21.49050517 31.50426551 22.91759806 32.9140625 24.34375 C36.3493351 27.82287934 39.7717464 31.3142096 43.1875 34.8125 C46.01883894 33.52687872 48.0430119 32.19626739 50.20849609 29.97094727 C50.76942963 29.4001796 51.33036316 28.82941193 51.90829468 28.24134827 C52.50316681 27.6267424 53.09803894 27.01213654 53.7109375 26.37890625 C54.99206544 25.07735381 56.27331938 23.77592537 57.5546875 22.47460938 C59.56055514 20.42529599 61.56388429 18.3735784 63.56445312 16.3190918 C65.50258581 14.3325058 67.44997698 12.35535604 69.3984375 10.37890625 C69.98926117 9.76632462 70.58008484 9.15374298 71.18881226 8.52259827 C76.70309686 2.94335622 81.81306528 0.37833764 89.6640625 -0.1875 C96.08300599 -0.1875 101.16384997 1.77173802 106.1875 5.8125 C111.95023745 11.60281035 114.47050557 16.28110561 114.5625 24.625 C114.59085938 25.78644531 114.61921875 26.94789063 114.6484375 28.14453125 C113.62203543 36.31225623 108.97983815 41.59741653 103.234375 47.15625 C102.57415344 47.81081177 101.91393188 48.46537354 101.23370361 49.13977051 C99.14425215 51.2070168 97.0412662 53.25983353 94.9375 55.3125 C93.50949483 56.72041979 92.08240194 58.12926551 90.65625 59.5390625 C87.17712066 62.9743351 83.6857904 66.3967464 80.1875 69.8125 C81.47218931 72.6433358 82.79765028 74.6596393 85.02905273 76.81762695 C85.5998204 77.37533279 86.17058807 77.93303864 86.75865173 78.50764465 C87.3732576 79.09937973 87.98786346 79.69111481 88.62109375 80.30078125 C89.92280274 81.57719184 91.22422613 82.85389374 92.52539062 84.13085938 C94.573369 86.12928791 96.62437153 88.12439198 98.6809082 90.11401367 C100.66992662 92.04233154 102.64607837 93.98313778 104.62109375 95.92578125 C105.23367538 96.51144363 105.84625702 97.09710602 106.47740173 97.70051575 C111.20592325 102.37336221 113.77640949 106.52747941 114.62109375 113.27734375 C114.63055551 121.68884659 114.26564397 127.60900324 108.28125 133.77734375 C101.90169419 139.59749821 96.84891138 141.69510135 88.1875 141.8125 C79.14689543 140.80975689 73.34821117 135.27271906 67.2578125 129.078125 C66.62261688 128.44009949 65.98742126 127.80207397 65.33297729 127.14471436 C63.32137395 125.12198828 61.31686863 123.09239279 59.3125 121.0625 C57.94317266 119.68313265 56.57338559 118.30422152 55.203125 116.92578125 C51.85924149 113.55994234 48.52170247 110.1879281 45.1875 106.8125 C42.3566642 108.09718931 40.3403607 109.42265028 38.18237305 111.65405273 C37.62466721 112.2248204 37.06696136 112.79558807 36.49235535 113.38365173 C35.90062027 113.9982576 35.30888519 114.61286346 34.69921875 115.24609375 C33.42280816 116.54780274 32.14610626 117.84922613 30.86914062 119.15039062 C28.87071209 121.198369 26.87560802 123.24937153 24.88598633 125.3059082 C22.95766846 127.29492662 21.01686222 129.27107837 19.07421875 131.24609375 C18.19572517 132.1649662 18.19572517 132.1649662 17.29948425 133.10240173 C11.82552631 138.64157965 6.26650016 141.19562774 -1.55859375 141.8046875 C-9.03730911 141.83061026 -15.29016459 138.78786124 -20.8125 133.8125 C-25.41485296 127.5047621 -27.32422117 121.61624784 -26.8125 113.8125 C-24.31820298 101.08929686 -12.69021965 92.56172069 -3.875 83.8125 C-2.70223991 82.64476626 -1.52971202 81.47679926 -0.35742188 80.30859375 C2.48821689 77.47386766 5.33697453 74.64231176 8.1875 71.8125 C6.90187872 68.98116106 5.57126739 66.9569881 3.34594727 64.79150391 C2.7751796 64.23057037 2.20441193 63.66963684 1.61634827 63.09170532 C1.0017424 62.49683319 0.38713654 61.90196106 -0.24609375 61.2890625 C-1.54764619 60.00793456 -2.84907463 58.72668062 -4.15039062 57.4453125 C-6.19970401 55.43944486 -8.2514216 53.43611571 -10.3059082 51.43554688 C-12.2924942 49.49741419 -14.26964396 47.55002302 -16.24609375 45.6015625 C-16.85867538 45.01073883 -17.47125702 44.41991516 -18.10240173 43.81118774 C-23.886835 38.0941009 -26.43801192 32.68084504 -27.0625 24.5625 C-26.56216581 17.05748711 -24.3272044 11.08743464 -18.8125 5.8125 C-12.76072722 1.75231063 -7.39227741 -0.63294136 0 0 Z " fill="#000000" transform="translate(389.8125,185.1875)"/>
</svg>
