<?xml version="1.0" encoding="UTF-8"?>
<svg version="1.1" xmlns="http://www.w3.org/2000/svg" width="512" height="512">
<path d="M0 0 C4.86489266 3.24326177 8.88606636 7.98257331 11.109375 13.40625 C11.88286083 17.33968624 12.23505972 21.06821533 12.23800945 25.07289696 C12.2412339 26.18414605 12.24445835 27.29539515 12.2477805 28.44031847 C12.2462319 29.65081507 12.2446833 30.86131167 12.24308777 32.10848999 C12.24535333 33.40245811 12.24761888 34.69642623 12.24995309 36.02960551 C12.25606317 39.61490981 12.25593843 43.20019077 12.25475872 46.7854991 C12.25455451 50.65470711 12.26007532 54.52390766 12.26481628 58.39311218 C12.27311885 65.97095737 12.27587094 73.54879477 12.27642866 81.12664412 C12.27690397 87.28633102 12.27895946 93.44601536 12.28212929 99.60570145 C12.29093447 117.07172506 12.29554883 134.53774252 12.29479881 152.00376837 C12.29473888 153.41584346 12.29473888 153.41584346 12.29467773 154.85644531 C12.29463685 155.7989787 12.29459597 156.74151209 12.29455385 157.7126071 C12.29414733 172.990467 12.30371879 188.26830225 12.3178161 203.54615502 C12.33217882 219.23547753 12.33908636 234.92478802 12.33822232 250.61411726 C12.33789034 259.42165329 12.3406382 268.22916347 12.35140038 277.03669357 C12.36050395 284.53485452 12.36268177 292.03297791 12.35589095 299.53114198 C12.35262514 303.35590433 12.35257128 307.18059461 12.3612442 311.00535011 C12.37055395 315.15363557 12.36433483 319.30175405 12.35661316 323.45004272 C12.36175672 324.65607788 12.36690029 325.86211304 12.37219971 327.10469472 C12.33061469 337.20042654 11.17366687 345.69708501 4.109375 353.40625 C-1.73892176 357.88092546 -7.49585362 358.96249857 -14.73828125 358.97265625 C-22.67415779 357.54675526 -28.44399994 353.59424945 -34.265625 348.21875 C-35.56925709 347.05220491 -36.87395131 345.8868457 -38.1796875 344.72265625 C-39.12569824 343.8721167 -39.12569824 343.8721167 -40.09082031 343.00439453 C-44.23400726 339.32543336 -48.58142907 335.88725212 -52.890625 332.40625 C-59.33607782 327.17050093 -65.72082984 321.87241505 -72.04980469 316.49707031 C-77.27509688 312.0656504 -82.57418385 307.72780158 -87.890625 303.40625 C-94.33436441 298.16835656 -100.72079162 292.8724475 -107.04980469 287.49707031 C-112.27509688 283.0656504 -117.57418385 278.72780158 -122.890625 274.40625 C-129.942189 268.67427692 -136.92323238 262.86871501 -143.84765625 256.984375 C-145.35392578 255.70820312 -145.35392578 255.70820312 -146.890625 254.40625 C-147.79818542 253.54069489 -148.70574585 252.67513977 -149.64080811 251.78335571 C-152.97980615 249.01994323 -155.56897613 248.78588523 -159.93066406 248.79443359 C-160.94663918 248.78593636 -160.94663918 248.78593636 -161.98313904 248.77726746 C-164.20808386 248.76383448 -166.43137784 248.7846675 -168.65625 248.8046875 C-170.21556707 248.79918078 -171.77487688 248.79105027 -173.33416748 248.78042603 C-177.43382304 248.75757618 -181.53294485 248.76174075 -185.63262939 248.77423096 C-192.17873673 248.79255133 -198.72452765 248.78234029 -205.27056122 248.74837112 C-207.54278543 248.74232315 -209.81431708 248.75545912 -212.08648682 248.77035522 C-222.31930959 248.77937945 -231.28542725 248.23831542 -239.3203125 241.39453125 C-244.42512949 234.93096944 -245.47984435 229.01709417 -245.42407227 220.92626953 C-245.43268784 219.90728577 -245.44130341 218.888302 -245.45018005 217.83843994 C-245.47278042 214.48838497 -245.46611101 211.13917067 -245.45703125 207.7890625 C-245.46226991 205.44790398 -245.46854728 203.10674758 -245.47581482 200.76559448 C-245.48620851 195.86495006 -245.4816728 190.96459619 -245.46704102 186.06396484 C-245.44986656 179.80067551 -245.47333853 173.53830473 -245.50853062 167.27511787 C-245.53055035 162.4416197 -245.52905177 157.60833968 -245.5207653 152.77480698 C-245.51994808 150.46645984 -245.52676739 148.15809633 -245.54153633 145.8497963 C-245.55906347 142.61430612 -245.54436981 139.38044584 -245.52172852 136.14501953 C-245.53342072 135.20236237 -245.54511292 134.2597052 -245.55715942 133.28848267 C-245.45965311 126.39901944 -243.61256799 121.21302282 -239.890625 115.40625 C-237.5390625 113.15234375 -237.5390625 113.15234375 -235.265625 111.84375 C-234.51023438 111.38871094 -233.75484375 110.93367188 -232.9765625 110.46484375 C-228.80833698 108.34950833 -225.53890436 108.30177435 -220.91577148 108.34375 C-219.45210425 108.35319571 -217.98843531 108.36237932 -216.52476501 108.37133789 C-215.74920698 108.37763214 -214.97364895 108.38392639 -214.17458916 108.39041138 C-210.05325026 108.41746477 -205.93194976 108.4074994 -201.81054688 108.40234375 C-196.57206546 108.3961486 -191.33466108 108.40128411 -186.09643555 108.45751953 C-181.85835134 108.50203176 -177.62224589 108.50220007 -173.38405037 108.47338867 C-171.77622646 108.47032556 -170.16828584 108.48303839 -168.56072807 108.51245117 C-160.53437237 108.651122 -154.35353302 108.6788658 -148.04394531 103.01660156 C-146.63938748 101.49818255 -145.25232922 99.9632152 -143.890625 98.40625 C-142.7474465 97.43050266 -141.5791734 96.48272365 -140.37890625 95.578125 C-133.47277119 90.31145373 -126.83021889 84.8310673 -120.29516602 79.11132812 C-114.92681518 74.41673792 -109.43822873 69.88764761 -103.890625 65.40625 C-98.00898172 60.62849285 -92.16614223 55.81153038 -86.390625 50.90625 C-79.74014121 45.25784028 -72.98941936 39.73801851 -66.21875 34.234375 C-61.23463878 30.17218031 -56.29157051 26.06801524 -51.390625 21.90625 C-16.12026896 -8.0029704 -16.12026896 -8.0029704 0 0 Z " fill="#000000" transform="translate(244.890625,80.59375)"/>
<path d="M0 0 C6.19109661 4.12739774 10.44159314 10.19705233 15 16 C16.21236328 17.52367187 16.21236328 17.52367187 17.44921875 19.078125 C55.2423183 66.98612979 79.90873243 129.31707602 80.203125 190.73046875 C80.21013931 191.71578079 80.21715363 192.70109283 80.22438049 193.71626282 C80.24176892 196.87338901 80.24823149 200.0303277 80.25 203.1875 C80.25067474 204.26580078 80.25134949 205.34410156 80.25204468 206.45507812 C80.23670305 221.86208681 79.90592927 236.82679664 77 252 C76.82839355 252.95519531 76.65678711 253.91039062 76.47998047 254.89453125 C67.46940359 304.56141079 46.89255017 351.72735558 15 391 C14.25105469 391.95003906 13.50210938 392.90007812 12.73046875 393.87890625 C7.34083904 400.36345198 2.29979646 404.01746294 -6.12890625 405.33203125 C-13.92364504 405.74388633 -20.24348167 402.38816782 -26.17578125 397.66796875 C-32.19196225 392.16709233 -34.57611436 386.30950398 -35.375 378.1875 C-35.09880942 369.25947881 -30.02297694 362.15568627 -24.5 355.5625 C-7.40587623 334.32454952 4.82469925 310.59162505 14 285 C14.29390625 284.18031738 14.5878125 283.36063477 14.890625 282.51611328 C36.50391939 221.02781999 30.54710728 153.09220685 2.8671875 94.60644531 C-6.08815001 76.26894216 -17.44425483 59.44812993 -30.6171875 43.90625 C-31.82761719 42.46765625 -31.82761719 42.46765625 -33.0625 41 C-33.77535156 40.175 -34.48820312 39.35 -35.22265625 38.5 C-39.84599668 31.99683983 -39.73526357 24.68256163 -39 17 C-37.24060058 10.32987183 -32.34460996 5.15079674 -27 1 C-17.91939744 -4.13126113 -9.47495934 -4.34712554 0 0 Z " fill="#000000" transform="translate(432,55)"/>
<path d="M0 0 C18.56570215 11.63293995 31.21913148 41.13097892 38 61 C38.2170459 61.63083496 38.4340918 62.26166992 38.65771484 62.91162109 C54.79302044 110.72650105 50.18281743 163.3568498 28.29296875 208.46582031 C12.75801774 238.91385495 12.75801774 238.91385495 -0.375 243.75 C-8.52771244 246.18103946 -14.54513972 244.77680007 -22 241 C-27.66498018 237.42859945 -31.51636842 232.17921054 -34.3125 226.1875 C-36.93365854 214.03485586 -32.61936002 206.47115281 -26.25 196.5 C-7.52482064 167.04563107 0.07806189 131.67896208 -7.03515625 97.18359375 C-7.34998086 95.78751395 -7.67157711 94.39294356 -8 93 C-8.24145752 91.95803467 -8.24145752 91.95803467 -8.48779297 90.89501953 C-12.50228668 74.2315927 -19.95187179 58.84681082 -30 45 C-31.29508469 43.1899407 -32.58690638 41.37754101 -33.875 39.5625 C-34.42929687 38.80066406 -34.98359375 38.03882813 -35.5546875 37.25390625 C-39.51812308 31.07308915 -39.84285863 25.18223156 -39 18 C-36.26509941 8.74647713 -29.71563021 2.74363939 -21.5625 -2 C-14.10450844 -4.09347131 -6.83520022 -3.80818298 0 0 Z " fill="#000000" transform="translate(352,135)"/>
</svg>
