<?xml version="1.0" encoding="UTF-8"?>
<svg version="1.1" xmlns="http://www.w3.org/2000/svg" width="161" height="169">
<path d="M0 0 C3.70198859 2.23528377 6.79307207 5.11376486 10 8 C11.79367798 9.57674197 13.59404044 11.14523359 15.39990234 12.70800781 C16.60765873 13.75543127 17.80885983 14.8104754 19.00244141 15.87402344 C19.56366699 16.36547852 20.12489258 16.85693359 20.703125 17.36328125 C21.19458008 17.79938721 21.68603516 18.23549316 22.19238281 18.68481445 C26.97360333 22.16353338 31.35918023 23.43573062 37.19140625 24.0625 C37.85913559 24.13992432 38.52686493 24.21734863 39.21482849 24.29711914 C42.04401166 24.62496058 44.87582377 24.92654198 47.70776367 25.22949219 C49.78686187 25.45580808 51.86399355 25.69627495 53.94140625 25.9375 C55.17576416 26.07027344 56.41012207 26.20304687 57.68188477 26.33984375 C61.11910723 27.023697 63.19975625 27.92133946 66 30 C70.75533607 37.13300411 66.41789687 49.45178783 64.875 57.4375 C64.68019043 58.38471924 64.48538086 59.33193848 64.28466797 60.30786133 C64.10564941 61.21560303 63.92663086 62.12334473 63.7421875 63.05859375 C63.49251221 64.26986938 63.49251221 64.26986938 63.23779297 65.50561523 C62.72853644 70.84758024 64.31724089 75.15487438 66.50390625 79.95703125 C66.99697266 81.07013672 67.49003906 82.18324219 67.99804688 83.33007812 C69.03729675 85.64341462 70.08412858 87.95336053 71.13867188 90.25976562 C74.01361779 96.78962312 76.07553111 101.84166377 75 109 C72.01486912 112.89547697 68.45491177 114.18663628 63.92578125 115.62890625 C62.52100754 116.11124367 61.11672567 116.59501549 59.71289062 117.08007812 C57.52355569 117.82351083 55.33253221 118.55606772 53.13110352 119.26293945 C42.43387254 122.72875041 36.40700396 126.33783155 30 136 C28.87448986 137.50678433 27.74225386 139.00858176 26.6015625 140.50390625 C25.09065238 142.5555426 23.5882497 144.61304336 22.08984375 146.67382812 C21.59871094 147.33962891 21.10757813 148.00542969 20.6015625 148.69140625 C20.17182129 149.28123291 19.74208008 149.87105957 19.29931641 150.47875977 C17.50593349 152.57845329 15.84819107 153.8991063 13.0625 154.23046875 C12.381875 154.21628906 11.70125 154.20210937 11 154.1875 C10.319375 154.18105469 9.63875 154.17460937 8.9375 154.16796875 C7 154 7 154 4 153 C3.505 153.99 3.01 154.98 2.5 156 C0 159 0 159 -3.56640625 159.5625 C-8.23812993 159.38529305 -11.07116194 157.30038646 -14.85229492 154.73217773 C-27.21431888 146.44918973 -37.76352073 145.91106206 -52.11694336 146.65429688 C-52.81551453 146.68878433 -53.51408569 146.72327179 -54.23382568 146.75880432 C-56.15046789 146.86493352 -58.06505506 147.00645944 -59.97924805 147.15014648 C-63 147 -63 147 -64.90844727 145.91552734 C-66.53271375 143.06515945 -66.27854975 140.74303274 -66.203125 137.48046875 C-66.20152377 136.14436508 -66.20515455 134.80824729 -66.21337891 133.47216797 C-66.21702454 132.77234802 -66.22067017 132.07252808 -66.22442627 131.35150146 C-66.40737925 115.87036067 -69.73536779 106.47161297 -79.7890625 94.2734375 C-82.00560051 91.52807473 -82.94896364 90.21600236 -83.7734375 86.7265625 C-81.90406882 80.13656582 -75.21391656 77.02112929 -69.6875 73.6875 C-68.94693359 73.23310547 -68.20636719 72.77871094 -67.44335938 72.31054688 C-65.63271314 71.20079596 -63.81687705 70.09952019 -62 69 C-63.38839419 64.69698653 -64.7478754 60.53226305 -66.6875 56.4375 C-68.33472322 52.12334395 -68.52675323 49.59027816 -68 45 C-64.9979381 41.03378579 -61.4240108 39.87503381 -56.8125 38.546875 C-55.38099212 38.1000836 -53.95068816 37.6494203 -52.52148438 37.1953125 C-51.78115967 36.96102539 -51.04083496 36.72673828 -50.27807617 36.48535156 C-36.59962815 32.07001714 -26.98863883 28.23423274 -20.06347656 14.94091797 C-18.31428443 11.74852186 -16.09526613 8.93723444 -13.875 6.0625 C-12.81925781 4.62583984 -12.81925781 4.62583984 -11.7421875 3.16015625 C-8.61021674 -0.72320659 -4.71304941 -1.05527874 0 0 Z " fill="#FDBC20" transform="translate(86,10)"/>
<path d="M0 0 C3.70198859 2.23528377 6.79307207 5.11376486 10 8 C11.79367798 9.57674197 13.59404044 11.14523359 15.39990234 12.70800781 C16.60765873 13.75543127 17.80885983 14.8104754 19.00244141 15.87402344 C19.56366699 16.36547852 20.12489258 16.85693359 20.703125 17.36328125 C21.19458008 17.79938721 21.68603516 18.23549316 22.19238281 18.68481445 C26.97360333 22.16353338 31.35918023 23.43573062 37.19140625 24.0625 C37.85913559 24.13992432 38.52686493 24.21734863 39.21482849 24.29711914 C42.04401166 24.62496058 44.87582377 24.92654198 47.70776367 25.22949219 C49.78686187 25.45580808 51.86399355 25.69627495 53.94140625 25.9375 C55.17576416 26.07027344 56.41012207 26.20304687 57.68188477 26.33984375 C61.11910723 27.023697 63.19975625 27.92133946 66 30 C70.75533607 37.13300411 66.41789687 49.45178783 64.875 57.4375 C64.68019043 58.38471924 64.48538086 59.33193848 64.28466797 60.30786133 C64.10564941 61.21560303 63.92663086 62.12334473 63.7421875 63.05859375 C63.49251221 64.26986938 63.49251221 64.26986938 63.23779297 65.50561523 C62.72853644 70.84758024 64.31724089 75.15487438 66.50390625 79.95703125 C66.99697266 81.07013672 67.49003906 82.18324219 67.99804688 83.33007812 C69.03729675 85.64341462 70.08412858 87.95336053 71.13867188 90.25976562 C74.01361779 96.78962312 76.07553111 101.84166377 75 109 C72.01486912 112.89547697 68.45491177 114.18663628 63.92578125 115.62890625 C62.52100754 116.11124367 61.11672567 116.59501549 59.71289062 117.08007812 C57.52355569 117.82351083 55.33253221 118.55606772 53.13110352 119.26293945 C42.43387254 122.72875041 36.40700396 126.33783155 30 136 C28.87448986 137.50678433 27.74225386 139.00858176 26.6015625 140.50390625 C25.09065238 142.5555426 23.5882497 144.61304336 22.08984375 146.67382812 C21.59871094 147.33962891 21.10757813 148.00542969 20.6015625 148.69140625 C20.17182129 149.28123291 19.74208008 149.87105957 19.29931641 150.47875977 C17.50593349 152.57845329 15.84819107 153.8991063 13.0625 154.23046875 C12.381875 154.21628906 11.70125 154.20210937 11 154.1875 C10.319375 154.18105469 9.63875 154.17460937 8.9375 154.16796875 C7 154 7 154 4 153 C3.505 153.99 3.01 154.98 2.5 156 C0 159 0 159 -3.56640625 159.5625 C-8.23812993 159.38529305 -11.07116194 157.30038646 -14.85229492 154.73217773 C-27.21431888 146.44918973 -37.76352073 145.91106206 -52.11694336 146.65429688 C-52.81551453 146.68878433 -53.51408569 146.72327179 -54.23382568 146.75880432 C-56.15046789 146.86493352 -58.06505506 147.00645944 -59.97924805 147.15014648 C-63 147 -63 147 -64.90844727 145.91552734 C-66.53271375 143.06515945 -66.27854975 140.74303274 -66.203125 137.48046875 C-66.20152377 136.14436508 -66.20515455 134.80824729 -66.21337891 133.47216797 C-66.21702454 132.77234802 -66.22067017 132.07252808 -66.22442627 131.35150146 C-66.40737925 115.87036067 -69.73536779 106.47161297 -79.7890625 94.2734375 C-82.00560051 91.52807473 -82.94896364 90.21600236 -83.7734375 86.7265625 C-81.90406882 80.13656582 -75.21391656 77.02112929 -69.6875 73.6875 C-68.94693359 73.23310547 -68.20636719 72.77871094 -67.44335938 72.31054688 C-65.63271314 71.20079596 -63.81687705 70.09952019 -62 69 C-63.38839419 64.69698653 -64.7478754 60.53226305 -66.6875 56.4375 C-68.33472322 52.12334395 -68.52675323 49.59027816 -68 45 C-64.9979381 41.03378579 -61.4240108 39.87503381 -56.8125 38.546875 C-55.38099212 38.1000836 -53.95068816 37.6494203 -52.52148438 37.1953125 C-51.78115967 36.96102539 -51.04083496 36.72673828 -50.27807617 36.48535156 C-36.59962815 32.07001714 -26.98863883 28.23423274 -20.06347656 14.94091797 C-18.31428443 11.74852186 -16.09526613 8.93723444 -13.875 6.0625 C-12.81925781 4.62583984 -12.81925781 4.62583984 -11.7421875 3.16015625 C-8.61021674 -0.72320659 -4.71304941 -1.05527874 0 0 Z M-3 7 C-4.23341007 8.47563014 -5.46127038 9.95589761 -6.6875 11.4375 C-7.53699219 12.4378125 -8.38648438 13.438125 -9.26171875 14.46875 C-11.24116592 16.89854758 -12.81476044 19.35386123 -14.33203125 22.09375 C-23.19441286 37.0376933 -37.30810051 40.71960525 -53.18756104 45.37780762 C-54.80886062 45.86469863 -56.40752925 46.42579434 -58 47 C-58.33 47.66 -58.66 48.32 -59 49 C-58.14339986 51.17226118 -57.18407959 53.30420219 -56.18359375 55.4140625 C-55.57692823 56.7465561 -54.97217699 58.07992256 -54.36914062 59.4140625 C-53.41671271 61.50488819 -52.45521871 63.58821082 -51.45825195 65.65820312 C-46.22330982 76.59206049 -45.42049847 84.18395786 -48 96 C-48.2994693 97.70114159 -48.59577149 99.40284892 -48.88671875 101.10546875 C-49.28479124 103.17275341 -49.69746293 105.2362327 -50.11914062 107.29882812 C-50.86953389 111.22999283 -50.90429096 114.12690476 -50 118 C-49.0620459 118.10546143 -48.1240918 118.21092285 -47.15771484 118.31958008 C-43.65655148 118.71872916 -40.15688397 119.12805366 -36.65771484 119.54418945 C-35.14711803 119.72174516 -33.63604624 119.89530964 -32.12451172 120.06469727 C-29.94359435 120.30981685 -27.76482584 120.5695547 -25.5859375 120.83203125 C-24.2767334 120.98389893 -22.9675293 121.1357666 -21.61865234 121.29223633 C-15.65001738 122.45962755 -11.67279271 124.99419638 -7.3125 129.125 C-3.66080556 132.50046944 0.0413553 135.76924089 3.875 138.9375 C5.20144531 140.03384766 5.20144531 140.03384766 6.5546875 141.15234375 C8.67353015 142.7533223 10.62191558 143.8612477 13 145 C13.42297363 144.43603516 13.84594727 143.87207031 14.28173828 143.29101562 C24.1328125 130.15625 24.1328125 130.15625 26.16430664 127.51049805 C27.99729531 125.1104648 27.99729531 125.1104648 29.23999023 122.78051758 C33.81521228 115.00329091 42.71756644 113.29819075 50.8125 110.6875 C53.11915979 109.9256652 55.42272041 109.15633618 57.72233582 108.37348938 C59.14681856 107.89032979 60.57576585 107.42009746 62.00923157 106.96427917 C64.16360128 106.27520219 64.16360128 106.27520219 67 105 C68.35198861 100.94403417 67.18598644 99.51766293 65.47265625 95.64453125 C64.92229443 94.36924055 64.372172 93.09384653 63.82226562 91.81835938 C62.94702045 89.81965058 62.06721461 87.82311997 61.18188477 85.82885742 C60.32875963 83.8976203 59.49381449 81.95923514 58.66015625 80.01953125 C58.15105713 78.86557861 57.64195801 77.71162598 57.11743164 76.52270508 C55.28139668 70.73460185 55.73898804 65.37963327 56.875 59.43359375 C57.14570313 57.9630957 57.14570313 57.9630957 57.421875 56.46289062 C57.61265625 55.46451172 57.8034375 54.46613281 58 53.4375 C59.18355587 47.21983319 60.2846663 41.34272102 60 35 C54.56380962 33.89455459 49.12566052 32.99616025 43.6171875 32.33984375 C42.17303467 32.16255737 42.17303467 32.16255737 40.69970703 31.98168945 C38.76208298 31.74738481 36.8229125 31.52547188 34.88232422 31.31713867 C26.54833081 30.29354994 21.41368265 27.64674444 15.25 21.8125 C6.75354907 13.54202964 6.75354907 13.54202964 -3 7 Z " fill="#010100" transform="translate(86,10)"/>
<path d="M0 0 C-0.40998013 8.12891628 -1.3828783 15.93764199 -2.98364258 23.90991211 C-3.11407959 24.58546143 -3.2445166 25.26101074 -3.37890625 25.95703125 C-3.4982251 26.54460205 -3.61754395 27.13217285 -3.74047852 27.73754883 C-4.50230803 34.37901087 -4.05365317 38.86825853 -1.33984375 45.01953125 C-1.07111954 45.64478195 -0.80239532 46.27003265 -0.52552795 46.91423035 C0.32362495 48.88653756 1.19121741 50.8498798 2.0625 52.8125 C2.93554078 54.79362175 3.80411703 56.77626438 4.66123962 58.764328 C5.43426225 60.5555652 6.22272086 62.34011744 7.01196289 64.12426758 C8 67 8 67 7 70 C4.68985017 70.92975269 2.4880666 71.66679422 0.10546875 72.35546875 C-1.33581135 72.80549583 -2.77587912 73.25942013 -4.21484375 73.71679688 C-4.96749512 73.95519287 -5.72014648 74.19358887 -6.49560547 74.43920898 C-20.24709601 78.88054918 -29.96751588 82.68477627 -36.92773438 96.0546875 C-38.70616695 99.28113348 -40.98433535 102.1055695 -43.25 105 C-43.97703125 105.969375 -44.7040625 106.93875 -45.453125 107.9375 C-45.96359375 108.618125 -46.4740625 109.29875 -47 110 C-47.66 109.67 -48.32 109.34 -49 109 C-48.9781665 107.70956787 -48.95633301 106.41913574 -48.93383789 105.08959961 C-48.93629202 100.18175506 -49.42553953 95.42778371 -50.05859375 90.56640625 C-50.22150658 89.2511924 -50.22150658 89.2511924 -50.38771057 87.90940857 C-50.8462435 84.20782526 -51.31710087 80.50784684 -51.78833008 76.80786133 C-52.47164037 71.4121659 -53.11544628 66.0144766 -53.7041626 60.60760498 C-53.90060597 58.87609058 -54.1130219 57.14631019 -54.34173584 55.41876221 C-56.10914691 41.96750499 -56.10914691 41.96750499 -53.59741211 37.51196289 C-51.43746868 35.51276191 -49.32709848 34.16781158 -46.75 32.75 C-44.98717247 31.62413002 -43.22548473 30.49647375 -41.46484375 29.3671875 C-40.55589355 28.81514648 -39.64694336 28.26310547 -38.71044922 27.69433594 C-34.39617052 24.997426 -30.37391802 21.93386827 -26.3125 18.875 C-24.74970244 17.72259483 -23.1859076 16.57154082 -21.62109375 15.421875 C-18.4968981 13.11489864 -15.38609671 10.79126382 -12.28515625 8.453125 C-11.16983521 7.61225342 -11.16983521 7.61225342 -10.03198242 6.75439453 C-8.62286783 5.68994283 -7.2154024 4.62330347 -5.80981445 3.55419922 C-1.10852827 0 -1.10852827 0 0 0 Z " fill="#FDBC20" transform="translate(146,45)"/>
<path d="M0 0 C6.16611391 4.40436708 11.82859334 9.26385791 17.45532227 14.32885742 C26.34585983 22.20006797 33.71105347 23.87307477 45.3125 25.125 C47.38561841 25.35644249 49.45791965 25.59242328 51.52934265 25.83859253 C53.39506116 26.05928563 55.26257194 26.26466733 57.13012695 26.46923828 C60 27 60 27 62 29 C43.09609949 43.62061166 43.09609949 43.62061166 33.86230469 50.00097656 C29.76710746 52.85658438 26.07477165 55.80567156 22.484375 59.28125 C13.85132521 67.30607894 13.85132521 67.30607894 8 69 C0.47412277 68.53878907 -6.15592809 64.37995741 -12.61669922 60.80517578 C-18.10997939 57.87421074 -23.81823948 55.4503283 -29.52301025 52.96450806 C-32.56742834 51.62952388 -35.59340638 50.25533317 -38.62109375 48.8828125 C-43.73821199 46.56736754 -48.8643278 44.27397678 -54 42 C-51.47669941 38.21504911 -49.92589601 38.09345486 -45.62890625 36.79296875 C-44.32287011 36.37771597 -43.01788882 35.95913397 -41.71386719 35.53759766 C-40.69456116 35.20927948 -40.69456116 35.20927948 -39.65466309 34.87432861 C-27.57577956 30.90899585 -18.47644469 27.35489408 -12.06542969 15.80810547 C-10.14209061 12.54407036 -7.72565972 9.65019024 -5.375 6.6875 C-4.54778163 5.60937327 -3.72210079 4.53006391 -2.8984375 3.44921875 C-1 1 -1 1 0 0 Z " fill="#FEE15B" transform="translate(83,17)"/>
<path d="M0 0 C1.36863493 0.68431747 2.73130717 1.38065585 4.08862305 2.0871582 C14.13241308 7.23140729 24.47164867 11.68083597 34.8125 16.1875 C36.67395113 17.00167196 38.53528012 17.81612321 40.39648438 18.63085938 C47.58800555 21.77667536 54.78162097 24.91622745 62 28 C62 28.66 62 29.32 62 30 C60.64916992 31.19824219 60.64916992 31.19824219 58.73046875 32.546875 C58.01608643 33.05492676 57.3017041 33.56297852 56.56567383 34.08642578 C55.38847778 34.90989502 55.38847778 34.90989502 54.1875 35.75 C52.52798956 36.92876412 50.86915706 38.10848314 49.2109375 39.2890625 C48.34952148 39.90040039 47.48810547 40.51173828 46.60058594 41.14160156 C42.47193205 44.09196895 38.39217018 47.10744797 34.3125 50.125 C33.52842773 50.7029834 32.74435547 51.2809668 31.93652344 51.87646484 C28.12942171 54.6831545 24.32919655 57.49856198 20.5390625 60.328125 C19.84514404 60.84358887 19.15122559 61.35905273 18.4362793 61.89013672 C17.13533793 62.85658663 15.83716524 63.82677839 14.54223633 64.80126953 C10.22559151 68 10.22559151 68 8 68 C7.71810028 59.76511121 9.08437928 52.23240135 10.66601562 44.17578125 C10.84970703 43.19480469 11.03339844 42.21382812 11.22265625 41.203125 C11.39547119 40.32301758 11.56828613 39.44291016 11.74633789 38.53613281 C12.27590507 33.24148042 10.30149178 29.04475144 8.2421875 24.23828125 C7.69385262 22.94212403 7.14568025 21.64589806 6.59765625 20.34960938 C5.733365 18.32067209 4.86656826 16.29285952 3.99658203 14.26635742 C3.15511072 12.30142483 2.32314485 10.33267822 1.4921875 8.36328125 C0.73977783 6.60431519 0.73977783 6.60431519 -0.02783203 4.80981445 C-0.34864746 3.88257568 -0.66946289 2.95533691 -1 2 C-0.67 1.34 -0.34 0.68 0 0 Z " fill="#FDE05A" transform="translate(28,57)"/>
<path d="M0 0 C15.02347217 6.10884516 29.85318926 12.5562282 44.57641602 19.35205078 C45.8439048 19.93263458 47.11140119 20.51320175 48.37890625 21.09375 C49.4882251 21.60615234 50.59754395 22.11855469 51.74047852 22.64648438 C55.14119492 24.05863116 58.44543428 25.05743974 62 26 C62 26.99 62 27.98 62 29 C61.06317383 29.27972656 60.12634766 29.55945313 59.16113281 29.84765625 C35.57746591 36.29663042 35.57746591 36.29663042 19.109375 53.0625 C18.76712891 53.71992188 18.42488281 54.37734375 18.07226562 55.0546875 C16.29383305 58.28113348 14.01566465 61.1055695 11.75 64 C11.02296875 64.969375 10.2959375 65.93875 9.546875 66.9375 C9.03640625 67.618125 8.5259375 68.29875 8 69 C7.34 68.67 6.68 68.34 6 68 C6.0218335 66.71029297 6.04366699 65.42058594 6.06616211 64.09179688 C6.06370199 59.17203679 5.57361364 54.40479375 4.94140625 49.53125 C4.8327977 48.65206909 4.72418915 47.77288818 4.61228943 46.86706543 C4.15347641 43.15449056 3.68210701 39.4435387 3.21166992 35.73242188 C1.71051163 23.82471378 0.52079576 11.99312589 0 0 Z " fill="#ED7526" transform="translate(91,86)"/>
<path d="M0 0 C0.66 0.33 1.32 0.66 2 1 C2.44315002 3.75718555 2.75792374 6.43782675 3 9.21484375 C3.08121094 10.05858047 3.16242188 10.9023172 3.24609375 11.7716217 C3.50622274 14.49283043 3.75348729 17.21502712 4 19.9375 C4.2482313 22.58829029 4.49912475 25.23881782 4.75048828 27.88931274 C4.91713074 29.65118575 5.08216415 31.41321167 5.24560547 33.17538452 C5.86372154 39.78471299 6.57736362 46.379979 7.390625 52.96824646 C7.94739133 57.68900895 8.0743522 62.2570599 8 67 C1.47661751 64.96522577 -4.73486916 62.48168058 -10.96875 59.69140625 C-11.88910034 59.28341293 -12.80945068 58.87541962 -13.75769043 58.45506287 C-16.67352725 57.16140367 -19.58679114 55.86206464 -22.5 54.5625 C-24.45425884 53.69428267 -26.40868456 52.82644086 -28.36328125 51.95898438 C-32.77311251 50.00094731 -37.18111805 48.03885571 -41.58813477 46.07449341 C-45.39091163 44.38034457 -49.19539507 42.69003868 -53 41 C-50.47669941 37.21504911 -48.92589601 37.09345486 -44.62890625 35.79296875 C-43.32287011 35.37771597 -42.01788882 34.95913397 -40.71386719 34.53759766 C-39.69456116 34.20927948 -39.69456116 34.20927948 -38.65466309 33.87432861 C-26.57841428 29.9098608 -17.47846386 26.35754563 -11.06982422 14.8125 C-9.12847987 11.52346749 -6.68511052 8.60933786 -4.3125 5.625 C-3.47291911 4.53565466 -2.63543293 3.44468917 -1.80078125 2.3515625 C-1.20652344 1.57554688 -0.61226562 0.79953125 0 0 Z " fill="#FEFDFB" transform="translate(82,18)"/>
<path d="M0 0 C4.84215164 2.64728745 9.182638 5.51048384 13.5 8.9375 C17.92906534 12.4016232 22.38804222 15.78235503 27 19 C25.68 23.29 24.36 27.58 23 32 C13.1 29.69 3.2 27.38 -7 25 C-8.12540752 19.3729624 -8.12540752 19.3729624 -6.6015625 15.390625 C-6.28703125 14.55402344 -5.9725 13.71742187 -5.6484375 12.85546875 C-5.31070312 11.99566406 -4.97296875 11.13585937 -4.625 10.25 C-4.295 9.37472656 -3.965 8.49945313 -3.625 7.59765625 C-1.17569314 1.17569314 -1.17569314 1.17569314 0 0 Z " fill="#FFFFFF" transform="translate(8,14)"/>
<path d="M0 0 C0.67245837 3.58227157 1.33695539 7.1659751 2 10.75 C2.19078125 11.76578125 2.3815625 12.7815625 2.578125 13.828125 C2.84882812 15.29765625 2.84882812 15.29765625 3.125 16.796875 C3.29257812 17.69760742 3.46015625 18.59833984 3.6328125 19.52636719 C4 22 4 22 4 26 C1.03 26.66 -1.94 27.32 -5 28 C-16 6.27808989 -16 6.27808989 -16 3 C-14.27318563 2.49193553 -12.54342021 1.99389533 -10.8125 1.5 C-9.84957031 1.2215625 -8.88664062 0.943125 -7.89453125 0.65625 C-5.13439851 0.03047092 -2.81289292 -0.04974903 0 0 Z " fill="#FFFFFF" transform="translate(47,0)"/>
</svg>
