<?xml version="1.0" encoding="UTF-8"?>
<svg version="1.1" xmlns="http://www.w3.org/2000/svg" width="161" height="137">
<path d="M0 0 C1.485 -0.01546875 1.485 -0.01546875 3 -0.03125 C18.05913507 0.14970089 31.62231285 5.63443544 42.5 16.09375 C53.1965381 27.55432654 55.55785956 40.10174506 55.08203125 55.3515625 C54.7045367 61.82529438 53.13183162 67.41999997 50.6875 73.4375 C50.18650935 74.81213936 49.68639329 76.18709806 49.1875 77.5625 C48.82398438 78.48675781 48.82398438 78.48675781 48.453125 79.4296875 C47.88439993 80.92113998 47.35988853 82.42960643 46.859375 83.9453125 C40.52973421 102.77331179 28.24689122 116.38980392 10.6875 125.4375 C-5.10993748 133.03429484 -23.26640947 136.20829808 -40.38525391 130.78027344 C-47.26066096 128.72085486 -51.76281349 130.50850546 -58.1875 133.3125 C-60.03745623 134.08458917 -61.88895513 134.85299542 -63.7421875 135.6171875 C-64.54897949 135.96507324 -65.35577148 136.31295898 -66.18701172 136.67138672 C-68.3125 137.4375 -68.3125 137.4375 -71.3125 137.4375 C-69.64020299 133.47780824 -66.94945006 130.4213799 -64.1875 127.1875 C-63.71957031 126.63320312 -63.25164063 126.07890625 -62.76953125 125.5078125 C-61.62074672 124.14802674 -60.46710347 122.79234835 -59.3125 121.4375 C-63.25039473 122.64454934 -67.18778704 123.85322873 -71.125 125.0625 C-72.29869141 125.42279297 -73.47238281 125.78308594 -74.68164062 126.15429688 C-82.70375436 128.6216318 -90.71301117 131.12581642 -98.69848633 133.70947266 C-104.09630124 135.4375 -104.09630124 135.4375 -106.3125 135.4375 C-105.67955022 131.99476311 -104.34525817 129.72800452 -102.35546875 126.8671875 C-101.7426001 125.97854004 -101.12973145 125.08989258 -100.49829102 124.17431641 C-99.83885498 123.22991699 -99.17941895 122.28551758 -98.5 121.3125 C-97.13720082 119.33910771 -95.77523464 117.36513992 -94.4140625 115.390625 C-93.72860352 114.39869141 -93.04314453 113.40675781 -92.33691406 112.38476562 C-89.30634654 107.97268035 -86.33599543 103.52146416 -83.375 99.0625 C-82.86155029 98.29019043 -82.34810059 97.51788086 -81.8190918 96.72216797 C-80.64917436 94.96131147 -79.48065716 93.19952476 -78.3125 91.4375 C-78.81177002 91.68508057 -79.31104004 91.93266113 -79.82543945 92.18774414 C-82.08705589 93.30212193 -84.35579261 94.40116796 -86.625 95.5 C-87.41068359 95.88994141 -88.19636719 96.27988281 -89.00585938 96.68164062 C-89.76318359 97.04580078 -90.52050781 97.40996094 -91.30078125 97.78515625 C-91.99727783 98.12554932 -92.69377441 98.46594238 -93.41137695 98.81665039 C-95.3125 99.4375 -95.3125 99.4375 -98.3125 98.4375 C-96.06358455 94.89514358 -93.81317412 91.35373924 -91.5625 87.8125 C-90.61117187 86.31396484 -90.61117187 86.31396484 -89.640625 84.78515625 C-89.021875 83.81191406 -88.403125 82.83867188 -87.765625 81.8359375 C-87.16588867 80.88702637 -86.56615234 79.93811523 -85.94824219 78.96044922 C-84.69072763 77.02087378 -83.34684859 75.13708944 -81.96875 73.28125 C-79.75220644 69.47548653 -79.25099496 65.86832563 -78.5625 61.5625 C-74.8853514 42.06286936 -63.99408139 26.15608168 -47.8203125 14.72265625 C-32.96848956 4.78634022 -17.82731246 0.1534947 0 0 Z " fill="#FCFDFD" transform="translate(106.3125,-0.4375)"/>
<path d="M0 0 C1.485 -0.01546875 1.485 -0.01546875 3 -0.03125 C18.05913507 0.14970089 31.62231285 5.63443544 42.5 16.09375 C53.1965381 27.55432654 55.55785956 40.10174506 55.08203125 55.3515625 C54.7045367 61.82529438 53.13183162 67.41999997 50.6875 73.4375 C50.18650935 74.81213936 49.68639329 76.18709806 49.1875 77.5625 C48.82398438 78.48675781 48.82398438 78.48675781 48.453125 79.4296875 C47.88439993 80.92113998 47.35988853 82.42960643 46.859375 83.9453125 C40.52973421 102.77331179 28.24689122 116.38980392 10.6875 125.4375 C-5.10993748 133.03429484 -23.26640947 136.20829808 -40.38525391 130.78027344 C-47.26066096 128.72085486 -51.76281349 130.50850546 -58.1875 133.3125 C-60.03745623 134.08458917 -61.88895513 134.85299542 -63.7421875 135.6171875 C-64.54897949 135.96507324 -65.35577148 136.31295898 -66.18701172 136.67138672 C-68.3125 137.4375 -68.3125 137.4375 -71.3125 137.4375 C-69.64020299 133.47780824 -66.94945006 130.4213799 -64.1875 127.1875 C-63.71957031 126.63320312 -63.25164063 126.07890625 -62.76953125 125.5078125 C-61.62074672 124.14802674 -60.46710347 122.79234835 -59.3125 121.4375 C-63.25039473 122.64454934 -67.18778704 123.85322873 -71.125 125.0625 C-72.29869141 125.42279297 -73.47238281 125.78308594 -74.68164062 126.15429688 C-82.70375436 128.6216318 -90.71301117 131.12581642 -98.69848633 133.70947266 C-104.09630124 135.4375 -104.09630124 135.4375 -106.3125 135.4375 C-105.67955022 131.99476311 -104.34525817 129.72800452 -102.35546875 126.8671875 C-101.7426001 125.97854004 -101.12973145 125.08989258 -100.49829102 124.17431641 C-99.83885498 123.22991699 -99.17941895 122.28551758 -98.5 121.3125 C-97.13720082 119.33910771 -95.77523464 117.36513992 -94.4140625 115.390625 C-93.72860352 114.39869141 -93.04314453 113.40675781 -92.33691406 112.38476562 C-89.30634654 107.97268035 -86.33599543 103.52146416 -83.375 99.0625 C-82.86155029 98.29019043 -82.34810059 97.51788086 -81.8190918 96.72216797 C-80.64917436 94.96131147 -79.48065716 93.19952476 -78.3125 91.4375 C-78.81177002 91.68508057 -79.31104004 91.93266113 -79.82543945 92.18774414 C-82.08705589 93.30212193 -84.35579261 94.40116796 -86.625 95.5 C-87.41068359 95.88994141 -88.19636719 96.27988281 -89.00585938 96.68164062 C-89.76318359 97.04580078 -90.52050781 97.40996094 -91.30078125 97.78515625 C-91.99727783 98.12554932 -92.69377441 98.46594238 -93.41137695 98.81665039 C-95.3125 99.4375 -95.3125 99.4375 -98.3125 98.4375 C-96.06358455 94.89514358 -93.81317412 91.35373924 -91.5625 87.8125 C-90.61117187 86.31396484 -90.61117187 86.31396484 -89.640625 84.78515625 C-89.021875 83.81191406 -88.403125 82.83867188 -87.765625 81.8359375 C-87.16588867 80.88702637 -86.56615234 79.93811523 -85.94824219 78.96044922 C-84.69072763 77.02087378 -83.34684859 75.13708944 -81.96875 73.28125 C-79.75220644 69.47548653 -79.25099496 65.86832563 -78.5625 61.5625 C-74.8853514 42.06286936 -63.99408139 26.15608168 -47.8203125 14.72265625 C-32.96848956 4.78634022 -17.82731246 0.1534947 0 0 Z M2.6875 7.4375 C-1.54885365 8.84961788 -5.34767131 8.76549708 -9.74609375 8.03125 C-22.15108074 6.15879913 -33.30124981 12.56155607 -43.3125 19.4375 C-46.38699114 22.30702507 -47.86651252 24.54552504 -49.734375 28.28125 C-53.05843413 34.92936826 -56.15131036 39.64512587 -61.5625 44.6875 C-68.69730584 51.46757857 -70.28673434 55.82687535 -70.65234375 65.61889648 C-71.03907524 76.54425667 -71.03907524 76.54425667 -67.3125 86.4375 C-60.91623687 91.43211569 -60.91623687 91.43211569 -53.3125 93.4375 C-53.04695313 94.15679687 -52.78140625 94.87609375 -52.5078125 95.6171875 C-50.28498349 100.8619017 -47.22196162 106.53851008 -42.35546875 109.71484375 C-30.10624839 114.57104354 -12.4522472 114.13814812 -0.3125 109.4375 C0.33203125 109.21835938 0.9765625 108.99921875 1.640625 108.7734375 C5.48619996 106.26353934 7.86897576 102.17259035 10.53320312 98.4921875 C15.01233654 92.52000961 18.68438277 91.55893593 26 90.4375 C32.45435308 88.97888913 35.32224687 86.6391719 39.04296875 81.25 C41.6614367 76.77186004 43.84847931 72.2883508 45.6875 67.4375 C46.01878906 66.56738281 46.35007812 65.69726562 46.69140625 64.80078125 C48.78576872 58.66796201 49.54237139 53.50208774 46.7890625 47.46875 C46.44617188 46.7778125 46.10328125 46.086875 45.75 45.375 C43.71020732 41.20861496 43.28632109 37.48179621 42.875 32.875 C42.02908723 25.63774628 40.32177636 21.99509646 34.6875 17.4375 C33.94113281 16.81359375 33.19476563 16.1896875 32.42578125 15.546875 C24.15014678 9.20355453 13.12654112 3.95781963 2.6875 7.4375 Z " fill="#110212" transform="translate(106.3125,-0.4375)"/>
<path d="M0 0 C1.97368455 1.02286834 3.47350568 2.12600079 5.12768555 3.61376953 C6.0556897 4.43615112 6.0556897 4.43615112 7.00244141 5.27514648 C7.64834229 5.85868896 8.29424316 6.44223145 8.9597168 7.04345703 C10.29672281 8.22878521 11.63525983 9.41238876 12.9753418 10.59423828 C13.6230957 11.16609863 14.27084961 11.73795898 14.93823242 12.32714844 C18.42422168 15.35186595 22.07281476 18.16145009 25.7722168 20.91845703 C23.5174306 26.85122034 20.4252144 32.2901773 17.3972168 37.85595703 C16.8197168 38.9278125 16.2422168 39.99966797 15.6472168 41.10400391 C15.08260742 42.14492188 14.51799805 43.18583984 13.9362793 44.25830078 C13.42532715 45.2005249 12.914375 46.14274902 12.38793945 47.11352539 C11.58815674 48.50196655 11.58815674 48.50196655 10.7722168 49.91845703 C10.22645996 51.01311279 9.68070313 52.10776855 9.1184082 53.2355957 C6.6041277 56.1106663 6.36834704 56.32123332 2.82983398 56.59960938 C1.24260285 56.59866352 -0.34483393 56.56499114 -1.9309082 56.50439453 C-3.18759308 56.49166 -3.18759308 56.49166 -4.46966553 56.47866821 C-7.14035751 56.44513277 -9.80800732 56.3698599 -12.4777832 56.29345703 C-14.29023953 56.26335731 -16.10274329 56.23598151 -17.9152832 56.21142578 C-22.35395181 56.14534177 -26.79035215 56.04182445 -31.2277832 55.91845703 C-32.93428777 49.39644788 -34.53624498 42.98907048 -35.3527832 36.29345703 C-35.49973633 35.12556641 -35.64668945 33.95767578 -35.7980957 32.75439453 C-36.3142999 28.14609885 -36.77783556 23.53363424 -37.2277832 18.91845703 C-36.41623779 18.48500977 -35.60469238 18.0515625 -34.76855469 17.60498047 C-31.72841153 15.98061898 -28.68875542 14.35535309 -25.64941406 12.72949219 C-24.33938376 12.0289395 -23.02916605 11.32873712 -21.71875 10.62890625 C-19.82411892 9.61699281 -17.93018836 8.60377849 -16.03637695 7.59033203 C-14.89998779 6.98286133 -13.76359863 6.37539063 -12.59277344 5.74951172 C-10.83592742 4.79352643 -9.08211714 3.82713886 -7.38748169 2.76477051 C-2.76670383 -0.10126894 -2.76670383 -0.10126894 0 0 Z " fill="#075D70" transform="translate(105.227783203125,21.08154296875)"/>
<path d="M0 0 C1.32686716 2.65373432 1.02451087 4.60034731 0.9375 7.5625 C0.89813859 18.57057525 3.46981678 26.95169254 11.04296875 35.234375 C21.79020256 45.35389427 33.41192162 48.55517751 47.90234375 48.30859375 C67.45391097 47.17346301 84.62299909 38.33496012 97.875 24 C101.21155892 20.0122091 103.67227476 15.6339968 106 11 C106.33 11 106.66 11 107 11 C107.19882663 22.81598233 101.1782889 36.1791494 93.62109375 45.12109375 C89.58337204 48.01549634 85.27468005 48.39693966 80.44555664 49.17260742 C72.87282903 50.6631575 69.38639328 54.94387864 65.00390625 61.00390625 C63.66776911 63.00160057 62.33313339 65.00029992 61 67 C59.01171875 67.9140625 59.01171875 67.9140625 56.6875 68.625 C55.92824219 68.86476563 55.16898437 69.10453125 54.38671875 69.3515625 C49.15340643 70.77337894 44.23070606 71.19348498 38.8125 71.1875 C38.05799561 71.18669434 37.30349121 71.18588867 36.52612305 71.18505859 C30.84081318 71.12285741 25.48043994 70.59395201 20 69 C19.02160156 68.78085938 18.04320313 68.56171875 17.03515625 68.3359375 C13.09838349 66.60314949 11.36383893 64.01056036 9.125 60.5 C8.7228125 59.90574219 8.320625 59.31148437 7.90625 58.69921875 C5 54.32007334 5 54.32007334 5 52 C4.360625 51.773125 3.72125 51.54625 3.0625 51.3125 C2.051875 50.879375 1.04125 50.44625 0 50 C-1.10408203 49.55720703 -1.10408203 49.55720703 -2.23046875 49.10546875 C-5.57282782 47.56242207 -8.23199161 46.2037749 -10.24609375 43.046875 C-13.47634617 33.95889212 -13.87713365 20.05038135 -10.265625 11.00390625 C-7.55499937 6.71208233 -3.77463211 3.34731527 0 0 Z " fill="#F6D8E3" transform="translate(48,41)"/>
<path d="M0 0 C-7.20405763 8.08919781 -16.19504536 13.54320244 -26 18 C-26.66 18 -27.32 18 -28 18 C-26.38918065 14.36488896 -24.16896648 11.46953468 -21.6875 8.375 C-20.92824219 7.41335937 -20.16898437 6.45171875 -19.38671875 5.4609375 C-15.87780366 1.84290721 -12.18036806 0.91063394 -7.375 -0.1875 C-6.61960938 -0.36667969 -5.86421875 -0.54585938 -5.0859375 -0.73046875 C-3 -1 -3 -1 0 0 Z " fill="#115266" transform="translate(138,89)"/>
<path d="M0 0 C10.91262042 4.97954524 15.81331253 10.81960074 22 21 C13.96502947 19.43663469 7.68002092 13.4200287 3 7 C0 2.5 0 2.5 0 0 Z " fill="#0F5064" transform="translate(40,86)"/>
<path d="M0 0 C0.66 0.33 1.32 0.66 2 1 C-2.46818464 10.43940993 -7.1480475 17.00117715 -15 24 C-16 21 -16 21 -15.1015625 18.87109375 C-10.83870314 11.84527 -5.80963823 5.80963823 0 0 Z " fill="#0C4D61" transform="translate(57,24)"/>
<path d="M0 0 C6.54473768 6.99609889 7.34825133 14.43098515 7.10546875 23.69140625 C7.07066406 24.45324219 7.03585938 25.21507813 7 26 C1.44770787 17.67156181 -0.17025771 9.87494708 0 0 Z " fill="#185F71" transform="translate(148,26)"/>
<path d="M0 0 C0.88365234 0.00451172 1.76730469 0.00902344 2.67773438 0.01367188 C4.84768559 0.02540134 7.01760172 0.04333505 9.1875 0.0625 C2.15312731 3.64746938 -3.95940055 5.26145952 -11.75 3.0625 C-12.760625 2.7325 -13.77125 2.4025 -14.8125 2.0625 C-14.8125 1.7325 -14.8125 1.4025 -14.8125 1.0625 C-9.89747242 -0.22985715 -5.03959898 -0.04885517 0 0 Z " fill="#105163" transform="translate(106.8125,4.9375)"/>
<path d="M0 0 C0.66 0.33 1.32 0.66 2 1 C1.23832543 2.46313772 0.46529293 3.92036661 -0.3125 5.375 C-0.95638672 6.59316406 -0.95638672 6.59316406 -1.61328125 7.8359375 C-3 10 -3 10 -6 12 C-5.29186565 7.04305957 -3.54556225 3.54556225 0 0 Z " fill="#0F6072" transform="translate(55,28)"/>
<path d="M0 0 C0.33 0 0.66 0 1 0 C0.75 3.375 0.75 3.375 0 7 C-2.0625 8.4375 -2.0625 8.4375 -4 9 C-2.80100302 5.9168649 -1.52299523 2.93720508 0 0 Z " fill="#E3CBD5" transform="translate(154,52)"/>
<path d="M0 0 C0.66 0.33 1.32 0.66 2 1 C-0.57784846 3.64752004 -2.91648098 5.94432065 -6 8 C-4.55746343 4.63408134 -2.66735273 2.48952921 0 0 Z " fill="#0C5769" transform="translate(57,24)"/>
</svg>
