<?xml version="1.0" encoding="UTF-8"?>
<svg version="1.1" xmlns="http://www.w3.org/2000/svg" width="161" height="172">
<path d="M0 0 C1.20342041 0.48936035 2.40684082 0.9787207 3.64672852 1.48291016 C6.19988322 2.5214203 8.74878201 3.56961686 11.29541016 4.62402344 C14.6308708 6.00153586 17.97934714 7.34355901 21.33389282 8.67382812 C23.98347447 9.72593319 26.62834527 10.78953127 29.27233887 11.85559082 C30.53898852 12.36446282 31.80712352 12.8696546 33.07678223 13.37097168 C34.85694327 14.07602917 36.62981058 14.79941708 38.40234375 15.5234375 C39.41288818 15.92997559 40.42343262 16.33651367 41.46459961 16.75537109 C46.32432905 19.36307235 49.9536881 23.25295112 52.25 28.25 C53.10752487 31.73996297 53.65195525 35.260629 54.1875 38.8125 C54.3515332 39.85664062 54.51556641 40.90078125 54.68457031 41.9765625 C55.03404238 44.22326339 55.37775797 46.47086574 55.71630859 48.71923828 C56.25970147 52.31418235 56.82674502 55.9049301 57.39453125 59.49609375 C62.54975489 92.80384617 62.54975489 92.80384617 58.5625 100.625 C54.66881906 105.62334885 49.13203906 109.22424236 44.046875 112.92480469 C41.08211896 115.11131227 38.20037364 117.400996 35.3125 119.6875 C34.14598284 120.60565873 32.97931518 121.52362629 31.8125 122.44140625 C29.37304562 124.36342106 26.93610059 126.2885806 24.5 128.21484375 C23.8824585 128.70218994 23.26491699 129.18953613 22.62866211 129.69165039 C21.46171419 130.61262784 20.29577402 131.53488443 19.13110352 132.45874023 C17.51322417 133.73483801 15.88432515 134.99505007 14.25 136.25 C13.66597412 136.70689209 13.08194824 137.16378418 12.48022461 137.63452148 C8.93583261 140.31103703 6.17835577 141.91534611 1.6875 142.5625 C0.74390625 142.70945313 -0.1996875 142.85640625 -1.171875 143.0078125 C-3.75 143.25 -3.75 143.25 -7.0625 142.9375 C-10.40280274 143.3259073 -10.8748775 144.18016122 -13 146.6875 C-13.47953125 147.32558594 -13.9590625 147.96367187 -14.453125 148.62109375 C-15.75 150.25 -15.75 150.25 -17.75 151.25 C-25.10746827 151.80729736 -31.91647095 150.89855598 -39.0546875 149.203125 C-40.44519821 148.88441437 -40.44519821 148.88441437 -41.86380005 148.55926514 C-43.80284801 148.11126247 -45.74050496 147.65719855 -47.67675781 147.19726562 C-50.63457643 146.49773515 -53.59780229 145.82595054 -56.5625 145.15625 C-58.45611337 144.71518794 -60.34935713 144.27253531 -62.2421875 143.828125 C-63.12244598 143.63003235 -64.00270447 143.4319397 -64.90963745 143.22784424 C-69.70421468 142.06608647 -73.27637013 140.96526288 -76.75 137.25 C-78.04858398 134.63476562 -78.04858398 134.63476562 -78.99609375 131.65625 C-79.35582275 130.55249023 -79.71555176 129.44873047 -80.08618164 128.31152344 C-80.4496167 127.1362207 -80.81305176 125.96091797 -81.1875 124.75 C-81.57220459 123.54633789 -81.95690918 122.34267578 -82.35327148 121.10253906 C-83.50180255 117.48992602 -84.62632144 113.87040548 -85.75 110.25 C-86.38687264 108.25484146 -87.02479896 106.26001877 -87.6640625 104.265625 C-88.21545248 102.511016 -88.76505972 100.75584532 -89.3125 99 C-89.56378662 98.21044922 -89.81507324 97.42089844 -90.07397461 96.60742188 C-91.4499434 92.05807873 -92.35554498 88.04342612 -91.75 83.25 C-89.921875 80.30078125 -89.921875 80.30078125 -87.5 77.5625 C-86.71109375 76.65113281 -85.9221875 75.73976563 -85.109375 74.80078125 C-82.75 72.25 -82.75 72.25 -80.4375 70.21875 C-78.53576501 68.39291701 -78.53576501 68.39291701 -78.578125 65.98046875 C-78.71734375 65.14128906 -78.8565625 64.30210938 -79 63.4375 C-79.58409203 58.80204619 -79.98508758 54.23557468 -80.125 49.5625 C-80.17398438 48.36238281 -80.22296875 47.16226563 -80.2734375 45.92578125 C-79.27730913 38.93058127 -75.29170971 34.208268 -69.84155273 29.94116211 C-69.23384033 29.48620361 -68.62612793 29.03124512 -68 28.5625 C-67.35168213 28.06049072 -66.70336426 27.55848145 -66.03540039 27.04125977 C-63.94982894 25.43125332 -61.85076873 23.8401085 -59.75 22.25 C-58.32609345 21.15980626 -56.90291881 20.06865593 -55.48046875 18.9765625 C-53.33729465 17.33248708 -51.19230816 15.69114849 -49.04052734 14.05834961 C-45.59505251 11.44324763 -42.17519402 8.80599144 -38.80859375 6.08984375 C-38.18605713 5.58976807 -37.56352051 5.08969238 -36.92211914 4.57446289 C-35.76870866 3.64418195 -34.62027547 2.70767625 -33.47827148 1.76342773 C-21.79372647 -7.63873977 -12.87394898 -5.36678506 0 0 Z " fill="#8337CA" transform="translate(100.75,20.75)"/>
<path d="M0 0 C1.20342041 0.48936035 2.40684082 0.9787207 3.64672852 1.48291016 C6.19988322 2.5214203 8.74878201 3.56961686 11.29541016 4.62402344 C14.6308708 6.00153586 17.97934714 7.34355901 21.33389282 8.67382812 C23.98347447 9.72593319 26.62834527 10.78953127 29.27233887 11.85559082 C30.53898852 12.36446282 31.80712352 12.8696546 33.07678223 13.37097168 C34.85694327 14.07602917 36.62981058 14.79941708 38.40234375 15.5234375 C39.41288818 15.92997559 40.42343262 16.33651367 41.46459961 16.75537109 C46.32432905 19.36307235 49.9536881 23.25295112 52.25 28.25 C53.10752487 31.73996297 53.65195525 35.260629 54.1875 38.8125 C54.3515332 39.85664062 54.51556641 40.90078125 54.68457031 41.9765625 C55.03404238 44.22326339 55.37775797 46.47086574 55.71630859 48.71923828 C56.25970147 52.31418235 56.82674502 55.9049301 57.39453125 59.49609375 C62.54975489 92.80384617 62.54975489 92.80384617 58.5625 100.625 C54.66881906 105.62334885 49.13203906 109.22424236 44.046875 112.92480469 C41.08211896 115.11131227 38.20037364 117.400996 35.3125 119.6875 C34.14598284 120.60565873 32.97931518 121.52362629 31.8125 122.44140625 C29.37304562 124.36342106 26.93610059 126.2885806 24.5 128.21484375 C23.8824585 128.70218994 23.26491699 129.18953613 22.62866211 129.69165039 C21.46171419 130.61262784 20.29577402 131.53488443 19.13110352 132.45874023 C17.51322417 133.73483801 15.88432515 134.99505007 14.25 136.25 C13.66597412 136.70689209 13.08194824 137.16378418 12.48022461 137.63452148 C8.93583261 140.31103703 6.17835577 141.91534611 1.6875 142.5625 C0.74390625 142.70945313 -0.1996875 142.85640625 -1.171875 143.0078125 C-3.75 143.25 -3.75 143.25 -7.0625 142.9375 C-10.40280274 143.3259073 -10.8748775 144.18016122 -13 146.6875 C-13.47953125 147.32558594 -13.9590625 147.96367187 -14.453125 148.62109375 C-15.75 150.25 -15.75 150.25 -17.75 151.25 C-25.10746827 151.80729736 -31.91647095 150.89855598 -39.0546875 149.203125 C-40.44519821 148.88441437 -40.44519821 148.88441437 -41.86380005 148.55926514 C-43.80284801 148.11126247 -45.74050496 147.65719855 -47.67675781 147.19726562 C-50.63457643 146.49773515 -53.59780229 145.82595054 -56.5625 145.15625 C-58.45611337 144.71518794 -60.34935713 144.27253531 -62.2421875 143.828125 C-63.12244598 143.63003235 -64.00270447 143.4319397 -64.90963745 143.22784424 C-69.70421468 142.06608647 -73.27637013 140.96526288 -76.75 137.25 C-78.04858398 134.63476562 -78.04858398 134.63476562 -78.99609375 131.65625 C-79.35582275 130.55249023 -79.71555176 129.44873047 -80.08618164 128.31152344 C-80.4496167 127.1362207 -80.81305176 125.96091797 -81.1875 124.75 C-81.57220459 123.54633789 -81.95690918 122.34267578 -82.35327148 121.10253906 C-83.50180255 117.48992602 -84.62632144 113.87040548 -85.75 110.25 C-86.38687264 108.25484146 -87.02479896 106.26001877 -87.6640625 104.265625 C-88.21545248 102.511016 -88.76505972 100.75584532 -89.3125 99 C-89.56378662 98.21044922 -89.81507324 97.42089844 -90.07397461 96.60742188 C-91.4499434 92.05807873 -92.35554498 88.04342612 -91.75 83.25 C-89.921875 80.30078125 -89.921875 80.30078125 -87.5 77.5625 C-86.71109375 76.65113281 -85.9221875 75.73976563 -85.109375 74.80078125 C-82.75 72.25 -82.75 72.25 -80.4375 70.21875 C-78.53576501 68.39291701 -78.53576501 68.39291701 -78.578125 65.98046875 C-78.71734375 65.14128906 -78.8565625 64.30210938 -79 63.4375 C-79.58409203 58.80204619 -79.98508758 54.23557468 -80.125 49.5625 C-80.17398438 48.36238281 -80.22296875 47.16226563 -80.2734375 45.92578125 C-79.27730913 38.93058127 -75.29170971 34.208268 -69.84155273 29.94116211 C-69.23384033 29.48620361 -68.62612793 29.03124512 -68 28.5625 C-67.35168213 28.06049072 -66.70336426 27.55848145 -66.03540039 27.04125977 C-63.94982894 25.43125332 -61.85076873 23.8401085 -59.75 22.25 C-58.32609345 21.15980626 -56.90291881 20.06865593 -55.48046875 18.9765625 C-53.33729465 17.33248708 -51.19230816 15.69114849 -49.04052734 14.05834961 C-45.59505251 11.44324763 -42.17519402 8.80599144 -38.80859375 6.08984375 C-38.18605713 5.58976807 -37.56352051 5.08969238 -36.92211914 4.57446289 C-35.76870866 3.64418195 -34.62027547 2.70767625 -33.47827148 1.76342773 C-21.79372647 -7.63873977 -12.87394898 -5.36678506 0 0 Z M-30.3125 10.5625 C-31.10043945 11.19969971 -31.88837891 11.83689941 -32.70019531 12.4934082 C-34.30353171 13.79031983 -35.90173691 15.09360186 -37.49462891 16.40332031 C-40.62395254 18.9655853 -43.8101116 21.45143854 -47 23.9375 C-48.1163613 24.81580172 -49.23224858 25.69470627 -50.34765625 26.57421875 C-52.76688916 28.47944432 -55.19233455 30.37646552 -57.62109375 32.26953125 C-58.25950195 32.76815674 -58.89791016 33.26678223 -59.55566406 33.78051758 C-60.77642092 34.73377855 -61.99835732 35.68553165 -63.22167969 36.63549805 C-64.7430868 37.82518487 -66.24750057 39.0365216 -67.75 40.25 C-68.29615967 40.66572266 -68.84231934 41.08144531 -69.4050293 41.50976562 C-74.15799499 47.65954589 -70.34315485 62.77946301 -69.4296875 69.96875 C-68.99762533 73.14978686 -68.54907665 76.3277974 -68.08886719 79.50488281 C-67.62235345 82.76851473 -67.19365689 86.03581378 -66.765625 89.3046875 C-66.46843987 91.40136811 -66.16903948 93.49773618 -65.8671875 95.59375 C-65.74503876 96.56050659 -65.62289001 97.52726318 -65.49703979 98.52331543 C-64.52782794 104.85131645 -62.95820535 109.28955768 -57.75 113.25 C-54.05840294 115.28518944 -50.23708294 116.78824406 -46.296875 118.2734375 C-45.20030579 118.70508209 -44.10373657 119.13672668 -42.97393799 119.58145142 C-39.48966412 120.94822329 -35.99541636 122.28701624 -32.5 123.625 C-30.13469148 124.54631746 -27.77009908 125.46947569 -25.40625 126.39453125 C-20.22684031 128.41950007 -15.04084063 130.42645029 -9.84832764 132.41757202 C-7.75 133.25 -7.75 133.25 -5.75 134.25 C1.87052275 134.672417 6.31345927 131.63404287 11.9375 126.875 C13.10587402 125.92596802 13.10587402 125.92596802 14.29785156 124.95776367 C15.87995161 123.67242881 17.45637969 122.38007866 19.02685547 121.08056641 C22.14031758 118.51690081 25.3184684 116.04066895 28.5 113.5625 C29.61625189 112.68145369 30.73213897 111.79994498 31.84765625 110.91796875 C34.25423064 109.02130359 36.68157604 107.15486329 39.12109375 105.30078125 C39.75950195 104.8111792 40.39791016 104.32157715 41.05566406 103.81713867 C42.27244474 102.88466288 43.49415777 101.95857306 44.72167969 101.0402832 C48.09179149 98.44450647 50.58304097 96.19651079 52.25 92.25 C52.49465763 87.17530211 51.87982417 82.47371276 50.90234375 77.515625 C49.7315934 71.25244535 48.7747626 64.99659564 48.00390625 58.671875 C47.90492035 57.87656372 47.80593445 57.08125244 47.70394897 56.26184082 C47.30026333 53.009497 46.90015654 49.75702703 46.52319336 46.50146484 C46.24004679 44.07700747 45.93620231 41.65587364 45.62890625 39.234375 C45.54959366 38.50418152 45.47028107 37.77398804 45.38856506 37.02166748 C44.77073563 32.32192454 43.69049674 29.5333897 40.25 26.25 C37.53673413 24.65879148 37.53673413 24.65879148 34.4296875 23.48828125 C33.26646973 23.01358398 32.10325195 22.53888672 30.90478516 22.04980469 C29.64512627 21.5533521 28.38519129 21.05759957 27.125 20.5625 C25.82954693 20.04290983 24.53446645 19.52238984 23.23974609 19.00097656 C20.57432276 17.93137721 17.90511646 16.87209489 15.23242188 15.82080078 C12.63535999 14.79905905 10.04289453 13.76710528 7.45507812 12.72216797 C3.93359742 11.30126085 0.40585424 9.89742833 -3.125 8.5 C-4.19250488 8.06985596 -5.26000977 7.63971191 -6.35986328 7.1965332 C-16.86813237 3.11261085 -21.67683398 3.32224262 -30.3125 10.5625 Z " fill="#100011" transform="translate(100.75,20.75)"/>
<path d="M0 0 C0.5073957 3.20720862 1.004579 6.41592163 1.5 9.625 C1.64308594 10.52863281 1.78617188 11.43226562 1.93359375 12.36328125 C2.63734167 16.95439866 3.18584778 21.33831815 3 26 C3.84401367 26.11102051 4.68802734 26.22204102 5.55761719 26.33642578 C11.35136984 27.45326406 16.70427582 29.84467407 22.16015625 32.03759766 C24.25345758 32.87638546 26.35286405 33.69835079 28.453125 34.51953125 C29.78686018 35.05107613 31.12020791 35.58359447 32.453125 36.1171875 C34.26538574 36.83817627 34.26538574 36.83817627 36.11425781 37.57373047 C39 39 39 39 41 42 C41.52382693 44.44385761 41.95750315 46.8333796 42.32421875 49.30078125 C42.49000175 50.37177315 42.49000175 50.37177315 42.65913391 51.46440125 C42.89055037 52.97430942 43.11809478 54.48481541 43.34204102 55.99584961 C43.6849735 58.29555728 44.04574762 60.5919705 44.40820312 62.88867188 C44.63129792 64.35921011 44.85333736 65.82990892 45.07421875 67.30078125 C45.23660286 68.32296501 45.23660286 68.32296501 45.40226746 69.36579895 C45.99499751 73.48000725 46.05638082 76.96731691 45 81 C42.734375 83.421875 42.734375 83.421875 39.75 85.75 C39.22220947 86.16830078 38.69441895 86.58660156 38.15063477 87.01757812 C36.44593138 88.3615123 34.72408294 89.68105031 33 91 C31.8052348 91.93132419 30.61122415 92.86361717 29.41796875 93.796875 C16.92606532 103.52048958 16.92606532 103.52048958 10 103 C6.49902344 101.94604492 6.49902344 101.94604492 2.859375 100.48046875 C2.21051331 100.22123123 1.56165161 99.96199371 0.89312744 99.69490051 C-0.4671416 99.14833201 -1.82506322 98.59588778 -3.18066406 98.0378418 C-5.2526455 97.1864129 -7.33236045 96.35663371 -9.4140625 95.52929688 C-21.18853498 90.77118659 -21.18853498 90.77118659 -23 88 C-23.59261098 85.43035756 -24.02143293 83.01369554 -24.3515625 80.41015625 C-24.45592621 79.66922226 -24.56028992 78.92828827 -24.66781616 78.16490173 C-24.99873425 75.79889498 -25.31237609 73.43098685 -25.625 71.0625 C-25.94835596 68.6982001 -26.27522019 66.33441593 -26.60360718 63.97080994 C-26.80656814 62.50107374 -27.00595856 61.03083889 -27.20132446 59.56007385 C-27.45127444 57.7044509 -27.7244252 55.85199084 -28 54 C-28.08612549 53.22938232 -28.17225098 52.45876465 -28.26098633 51.66479492 C-29.43084739 49.02941911 -31.28481031 48.66075942 -33.91015625 47.640625 C-35.39418945 47.05087891 -35.39418945 47.05087891 -36.90820312 46.44921875 C-37.94912109 46.05347656 -38.99003906 45.65773437 -40.0625 45.25 C-41.62967773 44.63318359 -41.62967773 44.63318359 -43.22851562 44.00390625 C-45.81392717 42.98863048 -48.40411653 41.98812477 -51 41 C-50.15325058 36.60359393 -48.24770158 35.18598007 -44.75 32.375 C-44.2142334 31.9411499 -43.6784668 31.5072998 -43.12646484 31.06030273 C-38.27214036 27.15273366 -33.32794139 23.3581848 -28.37109375 19.58203125 C-24.78019964 16.84213997 -21.23366876 14.04737994 -17.6875 11.25 C-15.96905221 9.90007659 -14.24985352 8.55111737 -12.53027344 7.20263672 C-11.1654359 6.13001552 -9.80506039 5.05172224 -8.4453125 3.97265625 C-7.38957031 3.15087891 -7.38957031 3.15087891 -6.3125 2.3125 C-5.73113281 1.85488281 -5.14976563 1.39726562 -4.55078125 0.92578125 C-3 0 -3 0 0 0 Z " fill="#DF5CFE" transform="translate(82,25)"/>
<path d="M0 0 C0.33 0.66 0.66 1.32 1 2 C2.65848729 2.37189889 4.32715417 2.69920816 6 3 C7.56428495 3.57374186 9.11306706 4.19131445 10.64453125 4.84765625 C11.48564453 5.20537109 12.32675781 5.56308594 13.19335938 5.93164062 C14.05767578 6.30482422 14.92199219 6.67800781 15.8125 7.0625 C17.13797852 7.62807617 17.13797852 7.62807617 18.49023438 8.20507812 C20.66201124 9.13248554 22.83181367 10.06423634 25 11 C25.10957031 12.06734375 25.21914063 13.1346875 25.33203125 14.234375 C26.2398495 22.84936502 27.29022837 31.43071559 28.5625 40 C28.75259644 41.2988916 28.75259644 41.2988916 28.9465332 42.62402344 C29.52476235 46.94132853 29.52476235 46.94132853 31 51 C30.31035156 51.49628906 29.62070312 51.99257812 28.91015625 52.50390625 C27.97042969 53.18324219 27.03070313 53.86257812 26.0625 54.5625 C25.06347656 55.284375 24.06445312 56.00625 23.03515625 56.75 C19.54912965 59.33423594 16.19712076 62.05683054 12.875 64.84765625 C12.25625 65.22792969 11.6375 65.60820312 11 66 C10.01 65.67 9.02 65.34 8 65 C6.08862766 56.04624121 4.66835573 47.02725998 3.28564453 37.97973633 C3.01314388 36.20977818 2.73584307 34.44055201 2.45361328 32.67211914 C0.70005033 21.6791005 -0.43878651 11.14454153 0 0 Z " fill="#8337C9" transform="translate(30,64)"/>
<path d="M0 0 C3.14316172 0.9022457 6.11859529 2.02577943 9.15234375 3.24804688 C10.37695312 3.73660156 11.6015625 4.22515625 12.86328125 4.72851562 C14.79239065 5.50438515 16.72089864 6.28173748 18.64941406 7.05908203 C20.52400498 7.81302474 22.40065309 8.56184607 24.27734375 9.31054688 C25.39238281 9.75978516 26.50742188 10.20902344 27.65625 10.671875 C30.98229374 11.9622917 30.98229374 11.9622917 35.71484375 12.77929688 C36.70484375 21.35929687 37.69484375 29.93929687 38.71484375 38.77929688 C30.83784123 38.77929688 30.83784123 38.77929688 26.37792969 37.00683594 C25.38710388 36.61933167 24.39627808 36.23182739 23.37542725 35.83258057 C21.80320404 35.19518951 21.80320404 35.19518951 20.19921875 34.54492188 C18.56004486 33.89327057 18.56004486 33.89327057 16.88775635 33.22845459 C14.58587921 32.30960438 12.28641629 31.38468581 9.98925781 30.45410156 C6.46985823 29.03132406 2.94087875 27.63463883 -0.58984375 26.24023438 C-2.82744389 25.34334456 -5.06444475 24.44495787 -7.30078125 23.54492188 C-8.35702698 23.12809143 -9.41327271 22.71126099 -10.50152588 22.28179932 C-11.47974304 21.8816864 -12.45796021 21.48157349 -13.46582031 21.06933594 C-14.32628967 20.72292053 -15.18675903 20.37650513 -16.07330322 20.01959229 C-18.57141969 18.6187748 -19.74453272 17.16565142 -21.28515625 14.77929688 C-18.68275261 12.65213032 -16.07793229 10.52794407 -13.47265625 8.40429688 C-12.73466797 7.80101563 -11.99667969 7.19773437 -11.23632812 6.57617188 C-10.52412109 5.99609375 -9.81191406 5.41601562 -9.078125 4.81835938 C-8.42352295 4.2842041 -7.7689209 3.75004883 -7.09448242 3.19970703 C-2.68798689 -0.25960899 -2.68798689 -0.25960899 0 0 Z " fill="#9743FB" transform="translate(61.28515625,115.220703125)"/>
<path d="M0 0 C3 2 3 2 3.61978149 4.15647888 C3.7344577 5.04899857 3.84913391 5.94151825 3.96728516 6.86108398 C4.10397614 7.8723082 4.24066711 8.88353241 4.38150024 9.92539978 C4.51599579 11.02122879 4.65049133 12.1170578 4.7890625 13.24609375 C4.9378183 14.36814713 5.0865741 15.4902005 5.23983765 16.64625549 C5.71415569 20.2418212 6.17017256 23.8394215 6.625 27.4375 C7.0905321 31.03145581 7.55978394 34.62489495 8.03158569 38.21803284 C8.32430402 40.4566625 8.61269541 42.69586294 8.89639282 44.93565369 C9.02677948 45.95003006 9.15716614 46.96440643 9.29150391 48.00952148 C9.40458893 48.90283676 9.51767395 49.79615204 9.63418579 50.71653748 C9.96148696 53.15475971 9.96148696 53.15475971 11 56 C11.03954234 58.33299825 11.04401732 60.66708189 11 63 C9 64 9 64 6.78515625 63.36669922 C3.84883061 62.22134264 0.92078061 61.05949793 -2 59.875 C-3.02351562 59.483125 -4.04703125 59.09125 -5.1015625 58.6875 C-6.07867187 58.29304688 -7.05578125 57.89859375 -8.0625 57.4921875 C-8.96097656 57.13495605 -9.85945312 56.77772461 -10.78515625 56.40966797 C-13.66125831 54.579133 -14.09903936 53.25807789 -15 50 C-15.41460455 47.88814002 -15.76664692 45.76345482 -16.0703125 43.6328125 C-16.24433594 42.41722656 -16.41835937 41.20164063 -16.59765625 39.94921875 C-16.77167969 38.68722656 -16.94570312 37.42523438 -17.125 36.125 C-17.30675781 34.87074219 -17.48851563 33.61648437 -17.67578125 32.32421875 C-19.337415 20.51787371 -19.337415 20.51787371 -19 15 C-17.13541959 12.88742121 -15.65801056 11.49929887 -13.4375 9.875 C-12.8919043 9.44977051 -12.34630859 9.02454102 -11.78417969 8.58642578 C-10.20750726 7.36723836 -8.60422845 6.18269395 -7 5 C-6.22269531 4.4225 -5.44539062 3.845 -4.64453125 3.25 C-3.11528018 2.14011056 -1.56121191 1.06446267 0 0 Z " fill="#9743FC" transform="translate(142,50)"/>
<path d="M0 0 C0.5073957 3.20720862 1.004579 6.41592163 1.5 9.625 C1.64308594 10.52863281 1.78617188 11.43226562 1.93359375 12.36328125 C2.32327291 14.9054739 2.66994377 17.44946931 3 20 C3.23203125 21.68222656 3.23203125 21.68222656 3.46875 23.3984375 C3 26 3 26 0.421875 28.046875 C-0.70734375 28.69140625 -1.8365625 29.3359375 -3 30 C-4.11422075 30.8181526 -5.21308376 31.65757016 -6.296875 32.515625 C-7.13895508 33.18029785 -7.13895508 33.18029785 -7.99804688 33.85839844 C-8.57619141 34.31762695 -9.15433594 34.77685547 -9.75 35.25 C-10.35908203 35.72727539 -10.96816406 36.20455078 -11.59570312 36.69628906 C-14.42629955 38.92117952 -17.19968823 41.17299194 -19.921875 43.53125 C-20.77265625 44.2634375 -21.6234375 44.995625 -22.5 45.75 C-23.2321875 46.40484375 -23.964375 47.0596875 -24.71875 47.734375 C-27.96483956 49.5352877 -29.43924768 48.99751572 -33 48 C-36.16299775 46.90215301 -39.26961619 45.68807323 -42.375 44.4375 C-43.20644531 44.10814453 -44.03789063 43.77878906 -44.89453125 43.43945312 C-46.93184618 42.63155238 -48.96684442 41.8182989 -51 41 C-50.15325058 36.60359393 -48.24770158 35.18598007 -44.75 32.375 C-44.2142334 31.9411499 -43.6784668 31.5072998 -43.12646484 31.06030273 C-38.27214036 27.15273366 -33.32794139 23.3581848 -28.37109375 19.58203125 C-24.78019964 16.84213997 -21.23366876 14.04737994 -17.6875 11.25 C-15.96905221 9.90007659 -14.24985352 8.55111737 -12.53027344 7.20263672 C-11.1654359 6.13001552 -9.80506039 5.05172224 -8.4453125 3.97265625 C-7.38957031 3.15087891 -7.38957031 3.15087891 -6.3125 2.3125 C-5.73113281 1.85488281 -5.14976563 1.39726562 -4.55078125 0.92578125 C-3 0 -3 0 0 0 Z " fill="#F6B2FD" transform="translate(82,25)"/>
<path d="M0 0 C2.1875 0.9375 2.1875 0.9375 4.1875 2.9375 C4.4375 5.9375 4.4375 5.9375 4.1875 8.9375 C3.5275 9.5975 2.8675 10.2575 2.1875 10.9375 C1.6836672 14.300291 1.70989418 17.57230035 2.1875 20.9375 C3.48105827 22.30945574 4.81048702 23.64932656 6.1875 24.9375 C5.9375 28.6875 5.9375 28.6875 5.1875 31.9375 C2.375 32.5625 2.375 32.5625 -0.8125 32.9375 C-1.8025 32.2775 -2.7925 31.6175 -3.8125 30.9375 C-10.1547411 30.43993751 -10.1547411 30.43993751 -15.8125 32.9375 C-16.1425 33.5975 -16.4725 34.2575 -16.8125 34.9375 C-19.6875 35.6875 -19.6875 35.6875 -22.8125 35.9375 C-25.8125 33.9375 -25.8125 33.9375 -26.6875 31.625 C-26.8125 28.9375 -26.8125 28.9375 -25.3125 26.75 C-23.08331548 22.57027902 -23.60175518 18.45863574 -24.8125 13.9375 C-25.78738602 12.91300146 -26.78548811 11.90973792 -27.8125 10.9375 C-28.125 7.875 -28.125 7.875 -27.8125 4.9375 C-25.8125 2.9375 -25.8125 2.9375 -23.375 2.6875 C-20.8125 2.9375 -20.8125 2.9375 -17.8125 4.9375 C-12.77722412 5.52494885 -10.1468061 5.54316236 -6.125 2.375 C-5.56039063 1.91867187 -4.99578125 1.46234375 -4.4140625 0.9921875 C-2.8125 -0.0625 -2.8125 -0.0625 0 0 Z " fill="#E7E7E7" transform="translate(27.8125,14.0625)"/>
<path d="M0 0 C2.4375 0.1875 2.4375 0.1875 5 1 C5.28875 1.639375 5.5775 2.27875 5.875 2.9375 C6.93585211 5.43339801 6.93585211 5.43339801 10.625 6.25 C11.73875 6.4975 12.8525 6.745 14 7 C15.125 10.75 15.125 10.75 14 13 C13.21625 13.226875 12.4325 13.45375 11.625 13.6875 C7.76045188 15.61977406 7.40817944 17.99780579 6 22 C3.625 21.75 3.625 21.75 1 21 C0.71125 20.360625 0.4225 19.72125 0.125 19.0625 C-0.93585211 16.56660199 -0.93585211 16.56660199 -4.625 15.75 C-5.73875 15.5025 -6.8525 15.255 -8 15 C-8.33 13.35 -8.66 11.7 -9 10 C-8.05125 9.814375 -7.1025 9.62875 -6.125 9.4375 C-5.09375 8.963125 -4.0625 8.48875 -3 8 C-1.60961255 4.50973758 -1.60961255 4.50973758 -1 1 C-0.67 0.67 -0.34 0.34 0 0 Z " fill="#DADADA" transform="translate(58,0)"/>
<path d="" fill="#000000" transform="translate(0,0)"/>
</svg>
