<?xml version="1.0" encoding="UTF-8"?>
<svg version="1.1" xmlns="http://www.w3.org/2000/svg" width="512" height="512">
<path d="M0 0 C4.33242391 2.69376561 7.98414117 5.68623442 11.6875 9.1875 C15.47847427 12.73336309 19.31679357 16.13203149 23.375 19.375 C28.41416406 23.42666217 33.10465771 27.77354616 37.80810547 32.20263672 C41.27061478 35.44548452 44.79286848 38.53429479 48.5 41.5 C53.5043432 45.50347456 58.14699302 49.81336708 62.80859375 54.203125 C66.27096211 57.44578071 69.79305103 60.53444083 73.5 63.5 C78.5043432 67.50347456 83.14699302 71.81336708 87.80859375 76.203125 C91.27096211 79.44578071 94.79305103 82.53444083 98.5 85.5 C103.5043432 89.50347456 108.14699302 93.81336708 112.80859375 98.203125 C117.09018775 102.21302048 121.5369614 105.93190955 126.12109375 109.59375 C130.37099858 113.14590926 134.38760313 116.93799502 138.40625 120.74804688 C141.4501041 123.71736407 141.4501041 123.71736407 145 126 C144.99111755 124.68170197 144.98223511 123.36340393 144.9730835 122.00515747 C144.89186341 109.55846168 144.83197002 97.11181994 144.79275131 84.6649189 C144.77191049 78.26640876 144.74365636 71.86811322 144.69824219 65.46972656 C144.65466023 59.29054541 144.63083654 53.1115702 144.62049103 46.93224716 C144.61312188 44.57921992 144.59873176 42.22620347 144.57707977 39.87326431 C144.54788244 36.56777167 144.54405092 33.26312116 144.54589844 29.95751953 C144.53151733 28.99294327 144.51713623 28.028367 144.50231934 27.03456116 C144.55258865 18.67811607 146.527968 11.39633067 152.25 5.125 C159.43334556 -1.43909163 167.10372113 -3.39242848 176.65625 -3.265625 C189.40028757 -2.25324818 198.638614 8.6530497 207.52319336 16.91674805 C210.71188113 19.86919868 213.983196 22.65956747 217.375 25.375 C222.41416406 29.42666217 227.10465771 33.77354616 231.80810547 38.20263672 C235.27061478 41.44548452 238.79286848 44.53429479 242.5 47.5 C247.5043432 51.50347456 252.14699302 55.81336708 256.80859375 60.203125 C260.27096211 63.44578071 263.79305103 66.53444083 267.5 69.5 C272.5043432 73.50347456 277.14699302 77.81336708 281.80859375 82.203125 C285.27096211 85.44578071 288.79305103 88.53444083 292.5 91.5 C297.5043432 95.50347456 302.14699302 99.81336708 306.80859375 104.203125 C310.27096211 107.44578071 313.79305103 110.53444083 317.5 113.5 C322.5043432 117.50347456 327.14699302 121.81336708 331.80859375 126.203125 C335.27096211 129.44578071 338.79305103 132.53444083 342.5 135.5 C347.50675371 139.50540297 352.15181713 143.8173067 356.81518555 148.2097168 C360.2124539 151.39202094 363.66342177 154.41649406 367.3125 157.3125 C372.35068681 161.36707657 377.13023348 165.66886134 381.875 170.0625 C382.60114502 170.72354736 383.32729004 171.38459473 384.07543945 172.06567383 C390.06294825 177.66971531 395.55344745 183.73705923 396.2734375 192.22265625 C396.53199375 201.99807155 395.31739546 208.9424796 388.8125 216.5625 C387.884375 217.366875 386.95625 218.17125 386 219 C385.28972656 219.65355469 384.57945312 220.30710937 383.84765625 220.98046875 C378.68618453 225.71793332 373.36209804 230.20966957 367.91796875 234.6171875 C364.74582593 237.20755848 361.61956706 239.84682867 358.5 242.5 C353.65060094 246.62124182 348.74838629 250.66991814 343.8125 254.6875 C340.68200334 257.26146392 337.58827539 259.87569086 334.5 262.5 C329.65040619 266.62101634 324.74839194 270.66991354 319.8125 274.6875 C316.68200334 277.26146392 313.58827539 279.87569086 310.5 282.5 C305.65040619 286.62101634 300.74839194 290.66991354 295.8125 294.6875 C292.68200334 297.26146392 289.58827539 299.87569086 286.5 302.5 C281.65040619 306.62101634 276.74839194 310.66991354 271.8125 314.6875 C268.68200334 317.26146392 265.58827539 319.87569086 262.5 322.5 C257.65040619 326.62101634 252.74839194 330.66991354 247.8125 334.6875 C244.68200334 337.26146392 241.58827539 339.87569086 238.5 342.5 C233.65040619 346.62101634 228.74839194 350.66991354 223.8125 354.6875 C220.68199535 357.26147049 217.58857075 359.87602934 214.5 362.5 C184.87410853 387.62404594 184.87410853 387.62404594 169.9921875 387.30859375 C161.80188443 386.46390192 155.49254606 381.93990276 150 376 C146.51843938 371.19021394 144.89365054 366.62083332 144.84178162 360.72259521 C144.82709839 359.45222412 144.82709839 359.45222412 144.81211853 358.15618896 C144.80636307 357.23549622 144.8006076 356.31480347 144.79467773 355.36621094 C144.78477814 354.39026978 144.77487854 353.41432861 144.76467896 352.40881348 C144.7330997 349.1840253 144.70832056 345.9592224 144.68359375 342.734375 C144.66302115 340.49806333 144.64202459 338.26175553 144.62062073 336.02545166 C144.56543176 330.14004647 144.51600842 324.25460637 144.46777344 318.36914062 C144.41753528 312.36324965 144.36186128 306.35740936 144.30664062 300.3515625 C144.19909786 288.56775163 144.09764422 276.78389676 144 265 C143.05390869 265.81331787 142.10781738 266.62663574 141.13305664 267.46459961 C139.87128404 268.54804638 138.60948236 269.63145929 137.34765625 270.71484375 C136.72652954 271.24895874 136.10540283 271.78307373 135.4654541 272.33337402 C130.95905539 276.20086094 126.38735321 279.97913902 121.77734375 283.72265625 C118.65603633 286.28204054 115.5754997 288.88593791 112.5 291.5 C107.65045949 295.62107792 102.74839036 299.66991483 97.8125 303.6875 C94.68200334 306.26146392 91.58827539 308.87569086 88.5 311.5 C83.65040619 315.62101634 78.74839194 319.66991354 73.8125 323.6875 C70.68200334 326.26146392 67.58827539 328.87569086 64.5 331.5 C59.65040619 335.62101634 54.74839194 339.66991354 49.8125 343.6875 C46.68200334 346.26146392 43.58827539 348.87569086 40.5 351.5 C35.65240504 355.61931778 30.75447568 359.66885382 25.81640625 363.6796875 C23.21977756 365.81893499 20.66300702 367.99640956 18.11206055 370.18945312 C-2.42815279 387.7979171 -2.42815279 387.7979171 -16.9765625 387.33984375 C-25.02883347 386.43474352 -30.53056595 383.13239511 -36.2109375 377.48828125 C-42.09683574 369.3019992 -42.57886206 361.64314804 -42.5146637 351.77357483 C-42.51999518 350.33749649 -42.52706432 348.90142374 -42.53571075 347.46536154 C-42.55428547 343.53713319 -42.54805113 339.60928317 -42.53755772 335.68103945 C-42.53055096 331.43757984 -42.54657482 327.1941968 -42.55955505 322.95075989 C-42.58117558 314.64469666 -42.58107317 306.33877055 -42.57292951 298.03268845 C-42.56662474 291.28049607 -42.56777092 284.52834362 -42.57420158 277.77615166 C-42.57510324 276.81443258 -42.57600489 275.85271351 -42.57693387 274.86185144 C-42.57878511 272.90800654 -42.58064767 270.95416166 -42.58252143 269.00031679 C-42.59909311 250.68630164 -42.59038606 232.37236357 -42.57353585 214.05835306 C-42.55883945 197.31084333 -42.57346758 180.56351302 -42.60230602 163.8160264 C-42.63171272 146.61010479 -42.64266858 129.40426596 -42.63312382 112.19832033 C-42.63210129 110.25143494 -42.63110668 108.30454953 -42.6301403 106.35766411 C-42.62966391 105.39981575 -42.62918752 104.44196738 -42.6286967 103.45509331 C-42.62653425 96.71349502 -42.63632762 89.97197525 -42.65091133 83.23039436 C-42.66844433 75.01095291 -42.66830341 66.79174016 -42.64555968 58.57230765 C-42.63442626 54.38058961 -42.63123434 50.18927437 -42.64986038 45.99757385 C-42.66670943 42.15628147 -42.66025522 38.31574185 -42.63564359 34.47449785 C-42.62847709 32.43535522 -42.64575478 30.39617126 -42.66405493 28.35709816 C-42.56441651 18.51856097 -40.29912209 11.57325374 -33.8125 4.125 C-24.68444419 -4.19648191 -10.89886545 -5.96101212 0 0 Z " fill="#4FD082" transform="translate(79,64)"/>
<path d="M0 0 C5.4279712 2.66949403 9.44029515 5.99056331 13.75 10.1875 C17.88516215 14.12533204 22.03113527 17.93680756 26.5 21.5 C31.5043432 25.50347456 36.14699302 29.81336708 40.80859375 34.203125 C44.27096211 37.44578071 47.79305103 40.53444083 51.5 43.5 C56.5043432 47.50347456 61.14699302 51.81336708 65.80859375 56.203125 C69.27096211 59.44578071 72.79305103 62.53444083 76.5 65.5 C81.5043432 69.50347456 86.14699302 73.81336708 90.80859375 78.203125 C94.27096211 81.44578071 97.79305103 84.53444083 101.5 87.5 C106.5043432 91.50347456 111.14699302 95.81336708 115.80859375 100.203125 C119.27096211 103.44578071 122.79305103 106.53444083 126.5 109.5 C131.5043432 113.50347456 136.14699302 117.81336708 140.80859375 122.203125 C144.27096211 125.44578071 147.79305103 128.53444083 151.5 131.5 C156.5043432 135.50347456 161.14699302 139.81336708 165.80859375 144.203125 C170.09417208 148.21675197 174.54648423 151.93776707 179.1328125 155.60546875 C183.28496066 159.07313472 187.21328574 162.76782883 191.14257812 166.484375 C193.63329179 168.83432169 196.09674925 171.07628827 198.7890625 173.19921875 C201.36099517 175.2940261 202.84103709 176.92607616 203.3359375 180.26953125 C203.34882813 181.10871094 203.36171875 181.94789063 203.375 182.8125 C203.40335938 183.64394531 203.43171875 184.47539062 203.4609375 185.33203125 C202.37514694 191.61673421 197.67859964 195.48142185 192.9375 199.3125 C192.36386719 199.786875 191.79023438 200.26125 191.19921875 200.75 C189.47263495 202.17481362 187.73754822 203.58859024 186 205 C185.06285156 205.76699219 184.12570312 206.53398437 183.16015625 207.32421875 C181.379342 208.78077314 179.59677307 210.23518471 177.8125 211.6875 C174.68200334 214.26146392 171.58827539 216.87569086 168.5 219.5 C163.65040619 223.62101634 158.74839194 227.66991354 153.8125 231.6875 C150.68200334 234.26146392 147.58827539 236.87569086 144.5 239.5 C139.65040619 243.62101634 134.74839194 247.66991354 129.8125 251.6875 C126.68200334 254.26146392 123.58827539 256.87569086 120.5 259.5 C115.65040619 263.62101634 110.74839194 267.66991354 105.8125 271.6875 C102.68200334 274.26146392 99.58827539 276.87569086 96.5 279.5 C91.65040619 283.62101634 86.74839194 287.66991354 81.8125 291.6875 C78.68200334 294.26146392 75.58827539 296.87569086 72.5 299.5 C67.65040619 303.62101634 62.74839194 307.66991354 57.8125 311.6875 C54.68200334 314.26146392 51.58827539 316.87569086 48.5 319.5 C43.65040619 323.62101634 38.74839194 327.66991354 33.8125 331.6875 C30.68199169 334.2614735 27.58870749 336.87618607 24.5 339.5 C22.33448591 341.33469834 20.16745138 343.16759104 18 345 C17.00226563 345.84433594 16.00453125 346.68867188 14.9765625 347.55859375 C2.33902714 358.10141435 2.33902714 358.10141435 -4.0625 358.5 C-8.51285216 357.93487592 -10.61420488 356.90211011 -14 354 C-16.12171285 350.71638974 -16.25123748 348.04601898 -16.25447559 344.1806345 C-16.26030779 342.98443251 -16.26613998 341.78823053 -16.27214891 340.55577999 C-16.26647992 338.58231646 -16.26647992 338.58231646 -16.26069641 336.56898499 C-16.26371617 335.15841244 -16.26760477 333.74784154 -16.27228898 332.33727354 C-16.28260034 328.45659765 -16.28037921 324.57601382 -16.27610838 320.69533026 C-16.27364685 316.51188821 -16.28264817 312.32846866 -16.29014587 308.14503479 C-16.30291074 299.9476125 -16.30468435 291.75022293 -16.30234561 283.55279238 C-16.30056433 276.89150364 -16.302308 270.23022485 -16.30657005 263.5689373 C-16.30716524 262.62174933 -16.30776043 261.67456136 -16.30837366 260.69867073 C-16.30958538 258.77461152 -16.31079951 256.85055231 -16.31201603 254.9264931 C-16.3228984 236.87305649 -16.32072575 218.81963856 -16.31463119 200.76620089 C-16.30946106 184.24136787 -16.32071877 167.71659377 -16.33972941 151.19177241 C-16.35908948 134.23351995 -16.36736705 117.27529539 -16.36360615 100.3170318 C-16.36169137 90.79246643 -16.36420863 81.26795123 -16.37832069 71.74339485 C-16.39021214 63.63536507 -16.39166457 55.52741635 -16.37953053 47.4193855 C-16.37362615 43.28106604 -16.37258525 39.14289499 -16.38453293 35.00458527 C-16.39533885 31.21780572 -16.39235197 27.43129945 -16.37827124 23.64453297 C-16.37434667 21.62233773 -16.38521445 19.60013059 -16.39656812 17.57796341 C-16.38936158 16.37915368 -16.38215503 15.18034394 -16.37473011 13.94520664 C-16.37478513 12.91035871 -16.37484014 11.87551078 -16.37489682 10.80930382 C-15.80557437 6.54306405 -14.09733161 3.90921762 -10.8125 1.1875 C-7.17334516 -0.34903204 -3.84072556 -0.84389645 0 0 Z " fill="#4FD182" transform="translate(256,77)"/>
<path d="M0 0 C4.33242391 2.69376561 7.98414117 5.68623442 11.6875 9.1875 C15.47847427 12.73336309 19.31679357 16.13203149 23.375 19.375 C28.41416406 23.42666217 33.10465771 27.77354616 37.80810547 32.20263672 C41.27061478 35.44548452 44.79286848 38.53429479 48.5 41.5 C53.5043432 45.50347456 58.14699302 49.81336708 62.80859375 54.203125 C66.27096211 57.44578071 69.79305103 60.53444083 73.5 63.5 C78.5043432 67.50347456 83.14699302 71.81336708 87.80859375 76.203125 C91.27096211 79.44578071 94.79305103 82.53444083 98.5 85.5 C103.5043432 89.50347456 108.14699302 93.81336708 112.80859375 98.203125 C117.09018775 102.21302048 121.5369614 105.93190955 126.12109375 109.59375 C130.37099858 113.14590926 134.38760313 116.93799502 138.40625 120.74804688 C141.4501041 123.71736407 141.4501041 123.71736407 145 126 C144.99111755 124.68170197 144.98223511 123.36340393 144.9730835 122.00515747 C144.89186341 109.55846168 144.83197002 97.11181994 144.79275131 84.6649189 C144.77191049 78.26640876 144.74365636 71.86811322 144.69824219 65.46972656 C144.65466023 59.29054541 144.63083654 53.1115702 144.62049103 46.93224716 C144.61312188 44.57921992 144.59873176 42.22620347 144.57707977 39.87326431 C144.54788244 36.56777167 144.54405092 33.26312116 144.54589844 29.95751953 C144.53151733 28.99294327 144.51713623 28.028367 144.50231934 27.03456116 C144.55258865 18.67811607 146.527968 11.39633067 152.25 5.125 C159.43334556 -1.43909163 167.10372113 -3.39242848 176.65625 -3.265625 C189.40028757 -2.25324818 198.638614 8.6530497 207.52319336 16.91674805 C210.71188113 19.86919868 213.983196 22.65956747 217.375 25.375 C222.41416406 29.42666217 227.10465771 33.77354616 231.80810547 38.20263672 C235.27061478 41.44548452 238.79286848 44.53429479 242.5 47.5 C247.5043432 51.50347456 252.14699302 55.81336708 256.80859375 60.203125 C260.27096211 63.44578071 263.79305103 66.53444083 267.5 69.5 C272.5043432 73.50347456 277.14699302 77.81336708 281.80859375 82.203125 C285.27096211 85.44578071 288.79305103 88.53444083 292.5 91.5 C297.5043432 95.50347456 302.14699302 99.81336708 306.80859375 104.203125 C310.27096211 107.44578071 313.79305103 110.53444083 317.5 113.5 C322.5043432 117.50347456 327.14699302 121.81336708 331.80859375 126.203125 C335.27096211 129.44578071 338.79305103 132.53444083 342.5 135.5 C347.50675371 139.50540297 352.15181713 143.8173067 356.81518555 148.2097168 C360.2124539 151.39202094 363.66342177 154.41649406 367.3125 157.3125 C372.35068681 161.36707657 377.13023348 165.66886134 381.875 170.0625 C382.60114502 170.72354736 383.32729004 171.38459473 384.07543945 172.06567383 C390.06294825 177.66971531 395.55344745 183.73705923 396.2734375 192.22265625 C396.53199375 201.99807155 395.31739546 208.9424796 388.8125 216.5625 C387.884375 217.366875 386.95625 218.17125 386 219 C385.28972656 219.65355469 384.57945312 220.30710937 383.84765625 220.98046875 C378.68618453 225.71793332 373.36209804 230.20966957 367.91796875 234.6171875 C364.74582593 237.20755848 361.61956706 239.84682867 358.5 242.5 C353.65060094 246.62124182 348.74838629 250.66991814 343.8125 254.6875 C340.68200334 257.26146392 337.58827539 259.87569086 334.5 262.5 C329.65040619 266.62101634 324.74839194 270.66991354 319.8125 274.6875 C316.68200334 277.26146392 313.58827539 279.87569086 310.5 282.5 C305.65040619 286.62101634 300.74839194 290.66991354 295.8125 294.6875 C292.68200334 297.26146392 289.58827539 299.87569086 286.5 302.5 C281.65040619 306.62101634 276.74839194 310.66991354 271.8125 314.6875 C268.68200334 317.26146392 265.58827539 319.87569086 262.5 322.5 C257.65040619 326.62101634 252.74839194 330.66991354 247.8125 334.6875 C244.68200334 337.26146392 241.58827539 339.87569086 238.5 342.5 C233.65040619 346.62101634 228.74839194 350.66991354 223.8125 354.6875 C220.68199535 357.26147049 217.58857075 359.87602934 214.5 362.5 C184.87410853 387.62404594 184.87410853 387.62404594 169.9921875 387.30859375 C161.80188443 386.46390192 155.49254606 381.93990276 150 376 C146.51843938 371.19021394 144.89365054 366.62083332 144.84178162 360.72259521 C144.82709839 359.45222412 144.82709839 359.45222412 144.81211853 358.15618896 C144.80636307 357.23549622 144.8006076 356.31480347 144.79467773 355.36621094 C144.78477814 354.39026978 144.77487854 353.41432861 144.76467896 352.40881348 C144.7330997 349.1840253 144.70832056 345.9592224 144.68359375 342.734375 C144.66302115 340.49806333 144.64202459 338.26175553 144.62062073 336.02545166 C144.56543176 330.14004647 144.51600842 324.25460637 144.46777344 318.36914062 C144.41753528 312.36324965 144.36186128 306.35740936 144.30664062 300.3515625 C144.19909786 288.56775163 144.09764422 276.78389676 144 265 C143.05390869 265.81331787 142.10781738 266.62663574 141.13305664 267.46459961 C139.87128404 268.54804638 138.60948236 269.63145929 137.34765625 270.71484375 C136.72652954 271.24895874 136.10540283 271.78307373 135.4654541 272.33337402 C130.95905539 276.20086094 126.38735321 279.97913902 121.77734375 283.72265625 C118.65603633 286.28204054 115.5754997 288.88593791 112.5 291.5 C107.65045949 295.62107792 102.74839036 299.66991483 97.8125 303.6875 C94.68200334 306.26146392 91.58827539 308.87569086 88.5 311.5 C83.65040619 315.62101634 78.74839194 319.66991354 73.8125 323.6875 C70.68200334 326.26146392 67.58827539 328.87569086 64.5 331.5 C59.65040619 335.62101634 54.74839194 339.66991354 49.8125 343.6875 C46.68200334 346.26146392 43.58827539 348.87569086 40.5 351.5 C35.65240504 355.61931778 30.75447568 359.66885382 25.81640625 363.6796875 C23.21977756 365.81893499 20.66300702 367.99640956 18.11206055 370.18945312 C-2.42815279 387.7979171 -2.42815279 387.7979171 -16.9765625 387.33984375 C-25.02883347 386.43474352 -30.53056595 383.13239511 -36.2109375 377.48828125 C-42.09683574 369.3019992 -42.57886206 361.64314804 -42.5146637 351.77357483 C-42.51999518 350.33749649 -42.52706432 348.90142374 -42.53571075 347.46536154 C-42.55428547 343.53713319 -42.54805113 339.60928317 -42.53755772 335.68103945 C-42.53055096 331.43757984 -42.54657482 327.1941968 -42.55955505 322.95075989 C-42.58117558 314.64469666 -42.58107317 306.33877055 -42.57292951 298.03268845 C-42.56662474 291.28049607 -42.56777092 284.52834362 -42.57420158 277.77615166 C-42.57510324 276.81443258 -42.57600489 275.85271351 -42.57693387 274.86185144 C-42.57878511 272.90800654 -42.58064767 270.95416166 -42.58252143 269.00031679 C-42.59909311 250.68630164 -42.59038606 232.37236357 -42.57353585 214.05835306 C-42.55883945 197.31084333 -42.57346758 180.56351302 -42.60230602 163.8160264 C-42.63171272 146.61010479 -42.64266858 129.40426596 -42.63312382 112.19832033 C-42.63210129 110.25143494 -42.63110668 108.30454953 -42.6301403 106.35766411 C-42.62966391 105.39981575 -42.62918752 104.44196738 -42.6286967 103.45509331 C-42.62653425 96.71349502 -42.63632762 89.97197525 -42.65091133 83.23039436 C-42.66844433 75.01095291 -42.66830341 66.79174016 -42.64555968 58.57230765 C-42.63442626 54.38058961 -42.63123434 50.18927437 -42.64986038 45.99757385 C-42.66670943 42.15628147 -42.66025522 38.31574185 -42.63564359 34.47449785 C-42.62847709 32.43535522 -42.64575478 30.39617126 -42.66405493 28.35709816 C-42.56441651 18.51856097 -40.29912209 11.57325374 -33.8125 4.125 C-24.68444419 -4.19648191 -10.89886545 -5.96101212 0 0 Z M-24 17 C-26.45556925 21.14300111 -27.3757226 24.19809924 -27.38311005 28.99461174 C-27.39216669 30.17901214 -27.40122333 31.36341255 -27.41055441 32.58370388 C-27.40522648 33.87591039 -27.39989856 35.16811691 -27.39440918 36.4994812 C-27.3992999 37.89314551 -27.40549055 39.28680577 -27.41286707 40.68045914 C-27.42926688 44.50525114 -27.42694862 48.32983702 -27.4214921 52.15465188 C-27.41882195 56.28155309 -27.43335341 60.40839934 -27.44558716 64.53527832 C-27.46664392 72.61847097 -27.47118187 80.7015919 -27.46939927 88.78480874 C-27.46809178 95.35497255 -27.47189513 101.92511399 -27.47932434 108.49527359 C-27.48142353 110.3876181 -27.48352113 112.27996262 -27.48561716 114.17230713 C-27.48666069 115.11417308 -27.48770422 116.05603902 -27.48877937 117.02644636 C-27.5076827 134.84058831 -27.50663124 152.65468909 -27.49981004 170.46883692 C-27.49423438 186.76522879 -27.51506081 203.06146346 -27.54817051 219.35781859 C-27.58190441 236.09128435 -27.59707622 252.8246748 -27.59245348 269.55817521 C-27.5902085 278.95261798 -27.59545612 288.34691546 -27.62034607 297.74132919 C-27.6413553 305.73911058 -27.64495497 313.73666699 -27.62604648 321.7344576 C-27.61688628 325.81452793 -27.61575394 329.89417877 -27.63640213 333.97421646 C-27.65510535 337.71128047 -27.6506169 341.44758122 -27.62785631 345.1846161 C-27.62168906 347.17269873 -27.640068 349.16081104 -27.65939283 351.14880931 C-27.59018401 358.12293485 -27.1416035 363.86097682 -22 369 C-18.13674799 371.36186344 -14.43058276 371.64490524 -10 371 C-4.26952543 368.55924231 -0.20385985 364.61900993 4.33984375 360.41796875 C7.81002274 357.26372382 11.43822955 354.33280146 15.08203125 351.3828125 C18.25417407 348.79244152 21.38043294 346.15317133 24.5 343.5 C29.34939906 339.37875818 34.25161371 335.33008186 39.1875 331.3125 C42.31799666 328.73853608 45.41172461 326.12430914 48.5 323.5 C53.34959381 319.37898366 58.25160806 315.33008646 63.1875 311.3125 C66.31799666 308.73853608 69.41172461 306.12430914 72.5 303.5 C77.34959381 299.37898366 82.25160806 295.33008646 87.1875 291.3125 C90.31799912 288.73853406 93.4116341 286.12420534 96.5 283.5 C101.2691121 279.44987401 106.07912432 275.45647887 110.9296875 271.50390625 C128.45698701 257.80708898 128.45698701 257.80708898 145 243 C145.17519109 240.12284652 145.28488658 237.26836936 145.3515625 234.38793945 C145.37580292 233.48369232 145.40004333 232.57944519 145.42501831 231.64779663 C145.63722197 223.26105237 145.76142538 214.87263653 145.85931396 206.48385334 C145.92617451 200.85052612 146.02142555 195.22097589 146.18652344 189.58959961 C146.34554136 184.14152205 146.42924041 178.6968826 146.46209717 173.24663353 C146.48711624 171.17835585 146.53806957 169.1102091 146.61651611 167.0432682 C147.23244306 154.50552078 147.23244306 154.50552078 141.75634766 143.67929077 C138.12934827 140.04335727 134.15027427 137.00566346 130 134 C128.10294589 132.48340805 126.2417456 130.92909315 124.375 129.375 C123.51003906 128.6840625 122.64507812 127.993125 121.75390625 127.28125 C117.33555789 123.6212281 113.17983851 119.68436742 108.984375 115.7734375 C104.37851774 111.48018201 99.6189993 107.37670578 94.82421875 103.296875 C93.63254314 102.28156606 92.4411459 101.26593033 91.25 100.25 C90.34459473 99.47789185 90.34459473 99.47789185 89.42089844 98.69018555 C84.9605894 94.86799806 80.62741347 90.92786594 76.32470703 86.93017578 C73.18496883 84.03251776 69.95833511 81.29653427 66.625 78.625 C61.58583594 74.57333783 56.89534229 70.22645384 52.19189453 65.79736328 C48.72938522 62.55451548 45.20713152 59.46570521 41.5 56.5 C37.1429658 53.01437264 33.05878467 49.32206333 29 45.5 C24.09439192 40.88081207 19.06501116 36.53950893 13.80078125 32.328125 C9.89768638 29.08371142 6.19709667 25.63743365 2.50170898 22.15991211 C-5.42715729 14.57092343 -5.42715729 14.57092343 -15.9375 12.72265625 C-19.42504073 13.1916248 -21.4041149 14.70596201 -24 17 Z M163 17 C160.87828715 20.28361026 160.74876252 22.95398102 160.74552441 26.8193655 C160.73969221 28.01556749 160.73386002 29.21176947 160.72785109 30.44422001 C160.73163042 31.75986236 160.73540974 33.07550471 160.73930359 34.43101501 C160.73628383 35.84158756 160.73239523 37.25215846 160.72771102 38.66272646 C160.71739966 42.54340235 160.71962079 46.42398618 160.72389162 50.30466974 C160.72635315 54.48811179 160.71735183 58.67153134 160.70985413 62.85496521 C160.69708926 71.0523875 160.69531565 79.24977707 160.69765439 87.44720762 C160.69943567 94.10849636 160.697692 100.76977515 160.69342995 107.4310627 C160.69283476 108.37825067 160.69223957 109.32543864 160.69162634 110.30132927 C160.69041462 112.22538848 160.68920049 114.14944769 160.68798397 116.0735069 C160.6771016 134.12694351 160.67927425 152.18036144 160.68536881 170.23379911 C160.69053894 186.75863213 160.67928123 203.28340623 160.66027059 219.80822759 C160.64091052 236.76648005 160.63263295 253.72470461 160.63639385 270.6829682 C160.63830863 280.20753357 160.63579137 289.73204877 160.62167931 299.25660515 C160.60978786 307.36463493 160.60833543 315.47258365 160.62046947 323.5806145 C160.62637385 327.71893396 160.62741475 331.85710501 160.61546707 335.99541473 C160.60466115 339.78219428 160.60764803 343.56870055 160.62172876 347.35546703 C160.62565333 349.37766227 160.61478555 351.39986941 160.60343188 353.42203659 C160.61063842 354.62084632 160.61784497 355.81965606 160.62526989 357.05479336 C160.62521487 358.08964129 160.62515986 359.12448922 160.62510318 360.19069618 C161.19442563 364.45693595 162.90266839 367.09078238 166.1875 369.8125 C169.82665484 371.34903204 173.15927444 371.84389645 177 371 C182.45228794 368.29319038 186.74036391 364.86300757 191.25 360.8125 C192.57447556 359.64334604 193.90000246 358.47538205 195.2265625 357.30859375 C195.87012695 356.74124512 196.51369141 356.17389648 197.17675781 355.58935547 C200.46717468 352.72103546 203.8665117 349.98944305 207.2578125 347.2421875 C210.37000148 344.69746317 213.43726497 342.10381775 216.5 339.5 C221.34948722 335.37886052 226.25161123 331.33008388 231.1875 327.3125 C234.31799666 324.73853608 237.41172461 322.12430914 240.5 319.5 C245.34959381 315.37898366 250.25160806 311.33008646 255.1875 307.3125 C258.31799666 304.73853608 261.41172461 302.12430914 264.5 299.5 C269.34959381 295.37898366 274.25160806 291.33008646 279.1875 287.3125 C282.31799666 284.73853608 285.41172461 282.12430914 288.5 279.5 C293.34959381 275.37898366 298.25160806 271.33008646 303.1875 267.3125 C306.31799666 264.73853608 309.41172461 262.12430914 312.5 259.5 C317.34959381 255.37898366 322.25160806 251.33008646 327.1875 247.3125 C330.31799666 244.73853608 333.41172461 242.12430914 336.5 239.5 C341.34959381 235.37898366 346.25160806 231.33008646 351.1875 227.3125 C354.87280094 224.28236367 358.50990347 221.19737428 362.13989258 218.10131836 C364.79628725 215.84129359 367.46785913 213.61050139 370.19921875 211.44140625 C371.18535156 210.65636719 372.17148437 209.87132812 373.1875 209.0625 C374.06792969 208.37285156 374.94835937 207.68320312 375.85546875 206.97265625 C378.69677925 204.35906462 379.77589891 202.42952908 380.37109375 198.6328125 C380.48507765 194.32824421 380.41800752 191.70628856 378.1875 187.9375 C374.80182101 184.5329066 370.91850907 181.62115048 367.171875 178.62890625 C363.57330371 175.70023334 360.19521374 172.54807695 356.8125 169.375 C356.20865479 168.80910156 355.60480957 168.24320313 354.98266602 167.66015625 C354.39670654 167.11101562 353.81074707 166.561875 353.20703125 165.99609375 C348.5360668 161.61883286 343.70252459 157.4485711 338.828125 153.30078125 C337.63513685 152.28418244 336.44243795 151.26724412 335.25 150.25 C334.64631592 149.73518066 334.04263184 149.22036133 333.4206543 148.68994141 C328.96039016 144.86787748 324.62732886 140.92778734 320.32470703 136.93017578 C317.18496883 134.03251776 313.95833511 131.29653427 310.625 128.625 C305.58583594 124.57333783 300.89534229 120.22645384 296.19189453 115.79736328 C292.72938522 112.55451548 289.20713152 109.46570521 285.5 106.5 C280.4956568 102.49652544 275.85300698 98.18663292 271.19140625 93.796875 C267.72903789 90.55421929 264.20694897 87.46555917 260.5 84.5 C255.4956568 80.49652544 250.85300698 76.18663292 246.19140625 71.796875 C242.72903789 68.55421929 239.20694897 65.46555917 235.5 62.5 C231.1429658 59.01437264 227.05878467 55.32206333 223 51.5 C218.09039702 46.87705042 213.05521457 42.53398821 207.7890625 38.31640625 C204.52660024 35.60682625 201.41602627 32.76369076 198.3125 29.875 C197.75989502 29.36122803 197.20729004 28.84745605 196.63793945 28.31811523 C195.57395122 27.32792411 194.5102201 26.33745662 193.44677734 25.34667969 C184.5072392 16.42625601 184.5072392 16.42625601 172.9375 12.5 C168.48714784 13.06512408 166.38579512 14.09788989 163 17 Z " fill="#000201" transform="translate(79,64)"/>
</svg>
