<?xml version="1.0" encoding="UTF-8"?>
<svg version="1.1" xmlns="http://www.w3.org/2000/svg" width="500" height="500">
<path d="M0 0 C13.37096495 11.49465788 18.81775083 25.06875885 21.74291992 42.07397461 C21.97979974 43.40380975 22.21764052 44.73347401 22.45634651 46.06298256 C23.10735855 49.70438126 23.74503342 53.34800522 24.38048577 56.99214673 C25.07254164 60.94698779 25.77697809 64.89962483 26.48002625 68.8525238 C27.71121391 75.78345578 28.93491742 82.71567729 30.15472412 89.64862061 C31.99958579 100.13021469 33.86598061 110.60791338 35.73642755 121.08496785 C39.2084761 140.533944 42.65886135 159.98666825 46.09150887 179.44263649 C47.96428922 190.05594771 49.84217434 200.66830535 51.73217773 211.27856445 C53.420398 220.75604212 55.09959485 230.23506542 56.76781434 239.7160849 C57.63980969 244.67031258 58.51594892 249.62371474 59.40307045 254.57525826 C60.22784141 259.17970707 61.04034345 263.78615822 61.84375381 268.39438057 C62.13760388 270.06760683 62.43573937 271.74008781 62.73875618 273.41167831 C66.02488114 291.5700562 67.22531875 308.35443247 56.66796875 324.5703125 C56.15621094 325.29863281 55.64445312 326.02695312 55.1171875 326.77734375 C54.67761719 327.41285156 54.23804688 328.04835938 53.78515625 328.703125 C43.06196162 342.64018776 25.07561354 345.44469264 8.86328125 348.23828125 C7.0770003 348.55362751 5.29087559 348.86985994 3.50489807 349.18692017 C-1.19373095 350.01863027 -5.89435428 350.83846845 -10.59552002 351.65570068 C-15.25567859 352.46784243 -19.91390305 353.29091163 -24.57226562 354.11328125 C-30.05363773 355.08037413 -35.53536982 356.04520001 -41.01895142 356.99969482 C-49.68677597 358.50875116 -58.34975623 360.03754189 -67.00341797 361.62597656 C-69.35379492 362.05393214 -71.7042992 362.48118057 -74.05485344 362.90816116 C-75.52471103 363.17721079 -76.99397782 363.44951135 -78.46258736 363.72529221 C-80.4682616 364.10183415 -82.47615403 364.4665031 -84.48413086 364.83056641 C-85.60589218 365.03863922 -86.7276535 365.24671204 -87.88340759 365.46109009 C-90.87499694 365.77651969 -93.01231918 365.64025315 -95.8828125 364.77734375 C-97.25390625 363.2109375 -97.25390625 363.2109375 -98.3203125 361.21484375 C-103.5009231 351.88159891 -103.5009231 351.88159891 -111.8828125 345.77734375 C-117.87326971 344.16452835 -122.41185096 345.13441684 -127.8828125 347.77734375 C-132.50444392 351.29380244 -134.51867 355.2515781 -135.8828125 360.77734375 C-136.10393658 363.06102174 -136.25608424 365.30728414 -136.28125 367.6015625 C-137.23202696 371.04041162 -139.17754075 372.50418995 -141.8828125 374.77734375 C-144.60557569 375.64324111 -146.96349339 376.22006945 -149.75054932 376.66938782 C-150.53659695 376.81250072 -151.32264459 376.95561363 -152.13251185 377.10306329 C-154.76014981 377.57643769 -157.39182051 378.02114546 -160.02441406 378.46606445 C-161.91230289 378.80008 -163.7998851 379.13583262 -165.68717957 379.47319031 C-170.8102849 380.38366106 -175.93742116 381.26918026 -181.06571293 382.14990258 C-186.43571 383.07604281 -191.8019213 384.0236356 -197.16864014 384.96855164 C-206.18482544 386.55279714 -215.20354524 388.12186656 -224.22412109 389.6809082 C-234.643065 391.48171879 -245.05854381 393.30150958 -255.472193 395.13267452 C-266.56785974 397.08372282 -277.66555565 399.02300886 -288.76408672 400.95769095 C-291.95672409 401.51488965 -295.14901665 402.07403003 -298.34125519 402.63350868 C-303.36651205 403.51348786 -308.39310807 404.38539106 -313.42083168 405.25116158 C-315.26227744 405.56943573 -317.10328441 405.89026106 -318.94379997 406.213871 C-321.46374309 406.6564446 -323.98514966 407.08949286 -326.50714111 407.5202179 C-327.22846796 407.64909954 -327.94979481 407.77798118 -328.69298005 407.91076833 C-341.56598659 410.07182038 -354.92194055 408.47401016 -366.11328125 401.359375 C-371.55685479 397.38648549 -376.12074647 392.81067145 -380.4453125 387.65234375 C-381.00347656 386.98976563 -381.56164062 386.3271875 -382.13671875 385.64453125 C-387.23705339 377.2694851 -388.90141091 367.66149367 -390.53515625 358.12890625 C-390.78539698 356.7135848 -391.03652293 355.29841964 -391.28842163 353.88339233 C-391.99340537 349.90806568 -392.68573279 345.93061918 -393.37625504 341.95275879 C-394.13638257 337.58701595 -394.90817615 333.22333393 -395.6784668 328.859375 C-397.16230217 320.44287167 -398.63786759 312.02494134 -400.11035156 303.60644531 C-402.19599313 291.68520724 -404.29088653 279.76561431 -406.38964844 267.84667969 C-406.54444558 266.96757927 -406.69924271 266.08847885 -406.85873067 265.18273902 C-407.49841056 261.55010272 -408.1381314 257.91747364 -408.77789944 254.28485286 C-414.1822725 223.59863119 -419.58155268 192.91151274 -424.96983719 162.2224617 C-425.56550185 158.82988142 -426.161402 155.43734264 -426.75751877 152.04484177 C-427.45382158 148.08206826 -428.14960392 144.11920371 -428.84498227 140.15626788 C-429.09730899 138.71871553 -429.34980386 137.28119268 -429.60249031 135.84370351 C-430.36786296 131.48915504 -431.1275028 127.13364841 -431.8828125 122.77734375 C-432.07990499 121.65008881 -432.27699749 120.52283386 -432.48006248 119.36141968 C-432.66120409 118.30653351 -432.8423457 117.25164734 -433.02897644 116.16479492 C-433.18705371 115.25034103 -433.34513098 114.33588715 -433.50799847 113.39372253 C-435.68262167 98.21382666 -431.73194534 82.4929799 -422.66210938 70.11083984 C-410.89743704 55.26304259 -396.09819841 49.3682263 -377.85546875 46.2109375 C-375.92037193 45.86364594 -375.92037193 45.86364594 -373.94618225 45.50933838 C-370.36849039 44.86770235 -366.78869999 44.23858212 -363.20835114 43.61196518 C-359.36092843 42.93681365 -355.5153157 42.25148915 -351.66943359 41.56762695 C-345.6605345 40.50047376 -339.6507446 39.43850657 -333.64016342 38.38086987 C-322.91479784 36.49342299 -312.19313506 34.58584673 -301.47297573 32.6690588 C-291.6563385 30.9139842 -281.83851975 29.16563285 -272.01983738 27.42203617 C-265.91030356 26.33704042 -259.80121248 25.24969105 -253.69314575 24.15646362 C-247.87463992 23.11547685 -242.05466497 22.08311366 -236.2335186 21.05699921 C-234.07140834 20.67443287 -231.90981748 20.28891767 -229.74879646 19.90024567 C-226.76373677 19.36386992 -223.77696323 18.83827478 -220.78955078 18.31518555 C-219.92858827 18.15791709 -219.06762575 18.00064863 -218.18057346 17.83861446 C-211.34707159 16.66065595 -204.10444413 15.4400627 -197.5703125 18.15234375 C-194.36923008 21.2789824 -192.95403165 24.40697653 -191.09375 28.4296875 C-188.9537405 32.57854463 -186.41005369 34.26826335 -182.0703125 35.71484375 C-177.78609828 35.79884795 -174.54607709 35.03466457 -170.8828125 32.77734375 C-167.6279683 28.68792411 -166.7482851 25.87811619 -166.3828125 20.71484375 C-166.04785281 16.02540813 -165.22279206 13.28860432 -161.8828125 9.77734375 C-155.86801821 7.14940318 -149.91152869 5.83581942 -143.46972656 4.69262695 C-142.45705215 4.50687103 -141.44437775 4.32111511 -140.40101624 4.12973022 C-137.06825174 3.52099668 -133.73356031 2.92379326 -130.3984375 2.328125 C-128.05878795 1.90659228 -125.71916848 1.4848925 -123.37957764 1.06303406 C-118.47489807 0.18089473 -113.56910444 -0.69473489 -108.66259766 -1.56665039 C-102.42659086 -2.6760018 -96.19496007 -3.8081134 -89.96414566 -4.94621563 C-85.12898952 -5.82548157 -80.29108336 -6.68882099 -75.45232391 -7.54801369 C-73.15680928 -7.95818965 -70.86227595 -8.37390285 -68.56885529 -8.7956295 C-44.14214826 -13.27403171 -20.93738996 -16.1427844 0 0 Z " fill="#FDFDFD" transform="translate(434.8828125,52.22265625)"/>
<path d="M0 0 C1.22749035 3.68247104 0.61878089 4.72386959 -0.6875 8.3125 C-2.21928674 12.63724682 -3.6021915 16.96523366 -4.83984375 21.3828125 C-6.32050222 26.61948965 -7.82645762 31.84709571 -9.3671875 37.06640625 C-9.56968109 37.7528421 -9.77217468 38.43927795 -9.98080444 39.14651489 C-10.39799727 40.56021336 -10.81533709 41.97386845 -11.2328186 43.38748169 C-14.54007502 54.58890126 -17.84544492 65.79045976 -21.00756836 77.03393555 C-22.11885774 80.97572299 -23.27023374 84.89660948 -24.5078125 88.80078125 C-24.74846436 89.57284912 -24.98911621 90.34491699 -25.23706055 91.14038086 C-25.68462893 92.56826284 -26.14335905 93.9927252 -26.61645508 95.41235352 C-28.04539414 100.00583001 -28.32450716 103.36422494 -27 108 C-25.27077786 110.76866738 -23.21003274 113.17300692 -21.0625 115.625 C-19.8670655 117.04046518 -18.67307038 118.45714716 -17.48046875 119.875 C-16.8879834 120.57238281 -16.29549805 121.26976562 -15.68505859 121.98828125 C-13.32773758 124.8025851 -11.09226198 127.69989888 -8.875 130.625 C-5.46865479 135.08791756 -2.03515228 139.52597938 1.4375 143.9375 C1.89745361 144.52192871 2.35740723 145.10635742 2.83129883 145.70849609 C4.2204271 147.47267685 5.61017398 149.2363689 7 151 C13.18898337 158.85769312 19.357332 166.73102489 25.5 174.625 C26.39972534 175.78080566 26.39972534 175.78080566 27.31762695 176.95996094 C27.88312256 177.68731445 28.44861816 178.41466797 29.03125 179.1640625 C29.53205078 179.80811035 30.03285156 180.4521582 30.54882812 181.11572266 C31.02771484 181.73753418 31.50660156 182.3593457 32 183 C32.57685547 183.67724121 33.15371094 184.35448242 33.74804688 185.05224609 C34.36776367 186.01638428 34.36776367 186.01638428 35 187 C34.67 187.99 34.34 188.98 34 190 C17.84722707 197.71550017 -1.96699156 200.43220465 -19.625 200.5625 C-20.7687207 200.57708252 -21.91244141 200.59166504 -23.09082031 200.60668945 C-29.14793119 200.53185992 -33.46864136 200.42774526 -38 196 C-40.02693294 193.2480864 -41.70342752 190.35310238 -43.375 187.375 C-44.40825524 185.59394788 -45.4435238 183.81406272 -46.48046875 182.03515625 C-47.03653809 181.07496582 -47.59260742 180.11477539 -48.16552734 179.12548828 C-51.23470838 173.8963619 -54.41619282 168.73681105 -57.59967041 163.57672119 C-58.67927735 161.82583534 -59.7556549 160.07299711 -60.83154297 158.31982422 C-61.48912598 157.25135254 -62.14670898 156.18288086 -62.82421875 155.08203125 C-63.41291748 154.12530518 -64.00161621 153.1685791 -64.6081543 152.18286133 C-65.82162276 150.10635895 -65.82162276 150.10635895 -67 149 C-68.92635787 154.08756052 -69.68287236 159.01818376 -70.375 164.375 C-71.49095634 172.56160311 -72.71740576 180.72279953 -74.0625 188.875 C-74.22476074 189.87837402 -74.38702148 190.88174805 -74.55419922 191.91552734 C-76.83478552 205.61525236 -76.83478552 205.61525236 -79.34765625 208.6015625 C-90.46118838 215.23423999 -103.66193515 217.31309179 -116.25 219.3125 C-117.31395996 219.48402588 -118.37791992 219.65555176 -119.47412109 219.83227539 C-127.02164858 220.94898358 -134.3768083 221.18879286 -142 221 C-143.13328679 217.10614283 -142.64833538 214.92656612 -141.5 211 C-141.12088047 209.66355646 -140.74485371 208.32623358 -140.37109375 206.98828125 C-140.15565918 206.21822754 -139.94022461 205.44817383 -139.71826172 204.65478516 C-138.23968319 199.18977398 -136.91823116 193.68399429 -135.5625 188.1875 C-133.4747984 179.76552195 -131.31221756 171.38310534 -128.92089844 163.04272461 C-126.48604127 154.40416222 -124.46906622 145.65633164 -122.41015625 136.92211914 C-122.1265625 135.72578857 -121.84296875 134.52945801 -121.55078125 133.296875 C-121.29981689 132.22791992 -121.04885254 131.15896484 -120.7902832 130.05761719 C-120 127 -120 127 -118.92724609 123.82592773 C-117.76965598 120.29799051 -117.59039919 117.69468209 -118 114 C-119.69467982 110.98971855 -119.69467982 110.98971855 -122.1875 108.1875 C-123.11622051 107.05057175 -124.04184116 105.91110642 -124.96484375 104.76953125 C-125.45968262 104.16318848 -125.95452148 103.5568457 -126.46435547 102.93212891 C-129.18724034 99.50622893 -131.70821804 95.93611831 -134.25 92.375 C-138.77304617 86.0745652 -143.33167068 79.80269736 -147.9375 73.5625 C-148.51419434 72.78116699 -149.09088867 71.99983398 -149.68505859 71.19482422 C-150.85897241 69.60512886 -152.03312731 68.0156115 -153.20751953 66.42626953 C-157.42611317 60.71605657 -161.63893076 55.00161269 -165.84375 49.28125 C-167.76707335 46.66608372 -169.70176532 44.06069737 -171.65625 41.46875 C-172.3884375 40.4890625 -173.120625 39.509375 -173.875 38.5 C-174.49117188 37.6853125 -175.10734375 36.870625 -175.7421875 36.03125 C-177 34 -177 34 -177 31 C-158.99083236 23.82685696 -130.12175088 14.58259354 -111 21.375 C-105.67062037 24.27204681 -103.08082835 28.93735225 -100 34 C-99.07438432 35.46399443 -98.14575293 36.92608458 -97.21484375 38.38671875 C-95.13964314 41.64869756 -93.07457326 44.91668935 -91.01953125 48.19140625 C-88.29566532 52.5310219 -85.56552941 56.8663179 -82.8125 61.1875 C-82.43818848 61.78143555 -82.06387695 62.37537109 -81.67822266 62.98730469 C-80.81250595 64.34251732 -79.91040674 65.67439589 -79 67 C-78.67 67 -78.34 67 -78 67 C-77.86948242 66.4423999 -77.73896484 65.8847998 -77.60449219 65.31030273 C-75.19185897 55.02703461 -72.77530784 44.75423543 -69.953125 34.57421875 C-69.27557703 32.03341387 -68.66458588 29.5233529 -68.109375 26.95703125 C-65.36660301 14.68471436 -65.36660301 14.68471436 -60.03515625 11.0625 C-42.34550423 1.82721142 -19.78159088 -1.02514962 0 0 Z " fill="#010101" transform="translate(241,144)"/>
<path d="M0 0 C13.37096495 11.49465788 18.81775083 25.06875885 21.74291992 42.07397461 C21.97979974 43.40380975 22.21764052 44.73347401 22.45634651 46.06298256 C23.10735855 49.70438126 23.74503342 53.34800522 24.38048577 56.99214673 C25.07254164 60.94698779 25.77697809 64.89962483 26.48002625 68.8525238 C27.71121391 75.78345578 28.93491742 82.71567729 30.15472412 89.64862061 C31.99958579 100.13021469 33.86598061 110.60791338 35.73642755 121.08496785 C39.2084761 140.533944 42.65886135 159.98666825 46.09150887 179.44263649 C47.96428922 190.05594771 49.84217434 200.66830535 51.73217773 211.27856445 C53.420398 220.75604212 55.09959485 230.23506542 56.76781434 239.7160849 C57.63980969 244.67031258 58.51594892 249.62371474 59.40307045 254.57525826 C60.22784141 259.17970707 61.04034345 263.78615822 61.84375381 268.39438057 C62.13760388 270.06760683 62.43573937 271.74008781 62.73875618 273.41167831 C66.02488114 291.5700562 67.22531875 308.35443247 56.66796875 324.5703125 C56.15621094 325.29863281 55.64445312 326.02695312 55.1171875 326.77734375 C54.67761719 327.41285156 54.23804688 328.04835938 53.78515625 328.703125 C43.06196162 342.64018776 25.07561354 345.44469264 8.86328125 348.23828125 C7.0770003 348.55362751 5.29087559 348.86985994 3.50489807 349.18692017 C-1.19373095 350.01863027 -5.89435428 350.83846845 -10.59552002 351.65570068 C-15.25567859 352.46784243 -19.91390305 353.29091163 -24.57226562 354.11328125 C-30.05363773 355.08037413 -35.53536982 356.04520001 -41.01895142 356.99969482 C-49.68677597 358.50875116 -58.34975623 360.03754189 -67.00341797 361.62597656 C-69.35379492 362.05393214 -71.7042992 362.48118057 -74.05485344 362.90816116 C-75.52471103 363.17721079 -76.99397782 363.44951135 -78.46258736 363.72529221 C-80.4682616 364.10183415 -82.47615403 364.4665031 -84.48413086 364.83056641 C-85.60589218 365.03863922 -86.7276535 365.24671204 -87.88340759 365.46109009 C-90.87499694 365.77651969 -93.01231918 365.64025315 -95.8828125 364.77734375 C-97.25390625 363.2109375 -97.25390625 363.2109375 -98.3203125 361.21484375 C-103.5009231 351.88159891 -103.5009231 351.88159891 -111.8828125 345.77734375 C-117.87326971 344.16452835 -122.41185096 345.13441684 -127.8828125 347.77734375 C-132.50444392 351.29380244 -134.51867 355.2515781 -135.8828125 360.77734375 C-136.10393658 363.06102174 -136.25608424 365.30728414 -136.28125 367.6015625 C-137.23202696 371.04041162 -139.17754075 372.50418995 -141.8828125 374.77734375 C-144.60557569 375.64324111 -146.96349339 376.22006945 -149.75054932 376.66938782 C-150.53659695 376.81250072 -151.32264459 376.95561363 -152.13251185 377.10306329 C-154.76014981 377.57643769 -157.39182051 378.02114546 -160.02441406 378.46606445 C-161.91230289 378.80008 -163.7998851 379.13583262 -165.68717957 379.47319031 C-170.8102849 380.38366106 -175.93742116 381.26918026 -181.06571293 382.14990258 C-186.43571 383.07604281 -191.8019213 384.0236356 -197.16864014 384.96855164 C-206.18482544 386.55279714 -215.20354524 388.12186656 -224.22412109 389.6809082 C-234.643065 391.48171879 -245.05854381 393.30150958 -255.472193 395.13267452 C-266.56785974 397.08372282 -277.66555565 399.02300886 -288.76408672 400.95769095 C-291.95672409 401.51488965 -295.14901665 402.07403003 -298.34125519 402.63350868 C-303.36651205 403.51348786 -308.39310807 404.38539106 -313.42083168 405.25116158 C-315.26227744 405.56943573 -317.10328441 405.89026106 -318.94379997 406.213871 C-321.46374309 406.6564446 -323.98514966 407.08949286 -326.50714111 407.5202179 C-327.22846796 407.64909954 -327.94979481 407.77798118 -328.69298005 407.91076833 C-341.56598659 410.07182038 -354.92194055 408.47401016 -366.11328125 401.359375 C-371.55685479 397.38648549 -376.12074647 392.81067145 -380.4453125 387.65234375 C-381.00347656 386.98976563 -381.56164062 386.3271875 -382.13671875 385.64453125 C-387.23705339 377.2694851 -388.90141091 367.66149367 -390.53515625 358.12890625 C-390.78539698 356.7135848 -391.03652293 355.29841964 -391.28842163 353.88339233 C-391.99340537 349.90806568 -392.68573279 345.93061918 -393.37625504 341.95275879 C-394.13638257 337.58701595 -394.90817615 333.22333393 -395.6784668 328.859375 C-397.16230217 320.44287167 -398.63786759 312.02494134 -400.11035156 303.60644531 C-402.19599313 291.68520724 -404.29088653 279.76561431 -406.38964844 267.84667969 C-406.54444558 266.96757927 -406.69924271 266.08847885 -406.85873067 265.18273902 C-407.49841056 261.55010272 -408.1381314 257.91747364 -408.77789944 254.28485286 C-414.1822725 223.59863119 -419.58155268 192.91151274 -424.96983719 162.2224617 C-425.56550185 158.82988142 -426.161402 155.43734264 -426.75751877 152.04484177 C-427.45382158 148.08206826 -428.14960392 144.11920371 -428.84498227 140.15626788 C-429.09730899 138.71871553 -429.34980386 137.28119268 -429.60249031 135.84370351 C-430.36786296 131.48915504 -431.1275028 127.13364841 -431.8828125 122.77734375 C-432.07990499 121.65008881 -432.27699749 120.52283386 -432.48006248 119.36141968 C-432.66120409 118.30653351 -432.8423457 117.25164734 -433.02897644 116.16479492 C-433.18705371 115.25034103 -433.34513098 114.33588715 -433.50799847 113.39372253 C-435.68262167 98.21382666 -431.73194534 82.4929799 -422.66210938 70.11083984 C-410.89743704 55.26304259 -396.09819841 49.3682263 -377.85546875 46.2109375 C-375.92037193 45.86364594 -375.92037193 45.86364594 -373.94618225 45.50933838 C-370.36849039 44.86770235 -366.78869999 44.23858212 -363.20835114 43.61196518 C-359.36092843 42.93681365 -355.5153157 42.25148915 -351.66943359 41.56762695 C-345.6605345 40.50047376 -339.6507446 39.43850657 -333.64016342 38.38086987 C-322.91479784 36.49342299 -312.19313506 34.58584673 -301.47297573 32.6690588 C-291.6563385 30.9139842 -281.83851975 29.16563285 -272.01983738 27.42203617 C-265.91030356 26.33704042 -259.80121248 25.24969105 -253.69314575 24.15646362 C-247.87463992 23.11547685 -242.05466497 22.08311366 -236.2335186 21.05699921 C-234.07140834 20.67443287 -231.90981748 20.28891767 -229.74879646 19.90024567 C-226.76373677 19.36386992 -223.77696323 18.83827478 -220.78955078 18.31518555 C-219.92858827 18.15791709 -219.06762575 18.00064863 -218.18057346 17.83861446 C-211.34707159 16.66065595 -204.10444413 15.4400627 -197.5703125 18.15234375 C-194.36923008 21.2789824 -192.95403165 24.40697653 -191.09375 28.4296875 C-188.9537405 32.57854463 -186.41005369 34.26826335 -182.0703125 35.71484375 C-177.78609828 35.79884795 -174.54607709 35.03466457 -170.8828125 32.77734375 C-167.6279683 28.68792411 -166.7482851 25.87811619 -166.3828125 20.71484375 C-166.04785281 16.02540813 -165.22279206 13.28860432 -161.8828125 9.77734375 C-155.86801821 7.14940318 -149.91152869 5.83581942 -143.46972656 4.69262695 C-142.45705215 4.50687103 -141.44437775 4.32111511 -140.40101624 4.12973022 C-137.06825174 3.52099668 -133.73356031 2.92379326 -130.3984375 2.328125 C-128.05878795 1.90659228 -125.71916848 1.4848925 -123.37957764 1.06303406 C-118.47489807 0.18089473 -113.56910444 -0.69473489 -108.66259766 -1.56665039 C-102.42659086 -2.6760018 -96.19496007 -3.8081134 -89.96414566 -4.94621563 C-85.12898952 -5.82548157 -80.29108336 -6.68882099 -75.45232391 -7.54801369 C-73.15680928 -7.95818965 -70.86227595 -8.37390285 -68.56885529 -8.7956295 C-44.14214826 -13.27403171 -20.93738996 -16.1427844 0 0 Z M-67.7578125 -0.22265625 C-71.08957112 0.39486931 -74.4220412 1.00845448 -77.75454712 1.62193298 C-80.03665173 2.0423196 -82.31853129 2.46392969 -84.60018921 2.88673401 C-96.47092934 5.08377795 -108.36215798 7.15773899 -120.2578125 9.21484375 C-122.17433148 9.54743919 -124.0908358 9.88011911 -126.00732422 10.21289062 C-127.80694427 10.52486582 -129.60658542 10.83671932 -131.40625 11.1484375 C-132.24791718 11.29429291 -133.08958435 11.44014832 -133.95675659 11.59042358 C-139.56046017 12.55811847 -145.16956406 13.48614203 -150.78759766 14.36743164 C-152.93029913 14.68976992 -152.93029913 14.68976992 -154.8828125 15.77734375 C-155.39061537 18.02366848 -155.39061537 18.02366848 -155.6953125 20.71484375 C-156.93868242 28.06985503 -159.16635103 35.12102777 -165.3203125 39.77734375 C-172.17938411 43.92503022 -178.96065417 44.76506786 -186.8828125 43.77734375 C-194.77098354 41.0176683 -199.46373354 35.74888982 -203.1953125 28.40234375 C-203.7521875 27.20609375 -204.3090625 26.00984375 -204.8828125 24.77734375 C-215.22883394 25.96003667 -225.40904292 27.51835199 -235.6328125 29.52734375 C-247.35577128 31.79021296 -259.09987587 33.85247441 -270.8828125 35.77734375 C-282.24585756 37.63628767 -293.57361283 39.61462828 -304.8828125 41.77734375 C-315.43347384 43.7950001 -325.99735187 45.66463893 -336.59783936 47.40206909 C-341.8706883 48.26806027 -347.14079034 49.15064605 -352.41113281 50.03173828 C-355.39398642 50.53034585 -358.37777398 51.0227683 -361.36230469 51.51123047 C-364.98260587 52.1060177 -368.59805132 52.72513442 -372.21142578 53.3605957 C-374.17353669 53.70025485 -376.13946622 54.01762762 -378.10546875 54.33398438 C-392.50354177 56.9121728 -405.73065318 63.22565046 -414.6875 75.1875 C-416.26235797 77.65947856 -417.6013151 80.14226471 -418.8828125 82.77734375 C-419.2953125 83.58429688 -419.7078125 84.39125 -420.1328125 85.22265625 C-424.78954265 95.7973143 -423.82717648 108.06113798 -421.44921875 119.12182617 C-420.40356961 124.02420795 -419.57103897 128.96728661 -418.6953125 133.90234375 C-418.37494019 135.70058594 -418.37494019 135.70058594 -418.0480957 137.53515625 C-416.77936423 144.67351352 -415.52515255 151.81430742 -414.28125 158.95703125 C-413.71100378 162.2304803 -413.14069999 165.50391931 -412.5703125 168.77734375 C-412.42346008 169.62043091 -412.27660767 170.46351807 -412.12530518 171.33215332 C-409.99395801 183.55718455 -407.79954264 195.76936639 -405.56115723 207.97521973 C-402.20011653 226.30672518 -398.97632357 244.65943386 -395.8203125 263.02734375 C-395.50176804 264.8800589 -395.50176804 264.8800589 -395.17678833 266.77020264 C-393.56279326 276.15868865 -391.95068611 285.54749933 -390.34124756 294.93676758 C-389.37842368 300.55284426 -388.4120045 306.16827128 -387.43899536 311.78259277 C-387.1589585 313.40283859 -386.88044828 315.02334928 -386.60372925 316.64416504 C-385.18327962 324.9621113 -383.63848841 333.24277658 -381.859375 341.4921875 C-381.70373077 342.23259277 -381.54808655 342.97299805 -381.38772583 343.73583984 C-378.59793135 356.32957307 -371.16225019 366.46923907 -360.5078125 373.65234375 C-342.09141444 384.45161935 -320.88097952 379.55768627 -301.0078125 375.58984375 C-297.72660242 374.95678395 -294.44418503 374.33024686 -291.16172791 373.70368958 C-289.00820255 373.29196346 -286.85508805 372.87808208 -284.70240784 372.46195984 C-276.67725349 370.91221639 -268.64100255 369.50894411 -260.5703125 368.21484375 C-247.60191291 366.11158638 -234.68482573 363.75889064 -221.76333618 361.38711548 C-205.89767051 358.4774068 -190.01134429 355.70928922 -174.10424805 353.03564453 C-170.32856403 352.40078359 -166.55462958 351.75651435 -162.78210449 351.10314941 C-161.06610909 350.80878655 -159.3480966 350.52624193 -157.62988281 350.24511719 C-156.73624023 350.08817383 -155.84259766 349.93123047 -154.921875 349.76953125 C-154.19436035 349.64690918 -153.4668457 349.52428711 -152.71728516 349.39794922 C-150.4423189 348.62832396 -149.38185238 347.63577579 -147.8828125 345.77734375 C-147.30854674 343.34961473 -147.30854674 343.34961473 -147.0703125 340.65234375 C-145.88059289 333.22888671 -142.70298508 328.06873397 -136.8828125 323.33984375 C-130.01259783 319.76160694 -123.90500386 318.56403146 -116.328125 320.39453125 C-108.36069047 323.13106651 -104.0380161 328.16609576 -99.7578125 335.21484375 C-98.15602071 337.93086827 -98.15602071 337.93086827 -95.65112305 338.49365234 C-92.45092945 338.82160234 -89.879898 338.46304233 -86.71484375 337.87890625 C-85.45381836 337.65122559 -84.19279297 337.42354492 -82.89355469 337.18896484 C-81.4941222 336.92685615 -80.09470879 336.66464562 -78.6953125 336.40234375 C-77.21924153 336.13271589 -75.74299892 335.86402631 -74.26660156 335.59619141 C-70.98046496 334.99884085 -67.69531258 334.39638752 -64.41064453 333.79101562 C-58.37193569 332.68047988 -52.32877764 331.59515338 -46.28515625 330.51171875 C-44.08813289 330.11768622 -41.89111142 329.72364321 -39.6940918 329.32958984 C-38.6046225 329.13419617 -37.5151532 328.93880249 -36.39266968 328.73748779 C-29.19792691 327.44603217 -22.00427242 326.14857447 -14.8112793 324.84741211 C-10.77992283 324.11837559 -6.74742052 323.39612971 -2.71411133 322.67797852 C-0.74039274 322.32440603 1.23332162 321.97080996 3.20703125 321.6171875 C4.10576965 321.45846161 5.00450806 321.29973572 5.93048096 321.13619995 C17.05826209 319.13493877 25.62442378 316.46518402 34.1171875 308.77734375 C34.73207031 308.2771875 35.34695313 307.77703125 35.98046875 307.26171875 C44.31923176 299.93987806 49.43459081 287.79514609 50.36328125 276.88671875 C50.65945804 269.16817218 49.58879771 262.21241659 47.96240234 254.70776367 C46.04803574 245.79884754 44.58423968 236.83070057 43.1171875 227.83984375 C41.5367787 218.19251181 39.95236346 208.55598577 38.0546875 198.96484375 C36.44019643 190.78541902 35.10230012 182.57513084 33.8046875 174.33984375 C31.98211916 162.7833959 29.95773445 151.27662963 27.8046875 139.77734375 C25.28612421 126.31768025 22.90244589 112.84057332 20.62332153 99.33825684 C19.12861254 90.48337906 17.62307539 81.63032625 16.1171875 72.77734375 C15.87585083 71.35684723 15.87585083 71.35684723 15.62963867 69.90765381 C14.70162194 64.45315225 13.76244682 59.00078342 12.80712891 53.55099487 C12.51866843 51.89628906 12.23371256 50.24096764 11.95263672 48.58499146 C8.89666718 30.60726667 4.36778782 15.10892049 -10.8828125 3.77734375 C-14.12322943 1.84908404 -17.40655125 0.23211526 -20.8828125 -1.22265625 C-22.17058594 -1.76212891 -22.17058594 -1.76212891 -23.484375 -2.3125 C-37.4311762 -7.60501577 -53.725828 -2.87637628 -67.7578125 -0.22265625 Z " fill="#020202" transform="translate(434.8828125,52.22265625)"/>
<path d="M0 0 C13.92850322 13.27125988 21.10666418 33.31162981 21.66577148 52.23510742 C21.74461495 60.68021752 20.75635493 68.37839589 18.3125 76.5 C18.0340625 77.50417969 17.755625 78.50835937 17.46875 79.54296875 C12.59451327 95.7834213 2.85328507 107.87140227 -11.6875 116.5 C-19.28825691 120.54443946 -27.04972391 123.81211516 -35.25 126.4375 C-35.90436035 126.64906738 -36.5587207 126.86063477 -37.23291016 127.07861328 C-41.17990846 128.27297924 -44.58793521 128.57819333 -48.6875 128.5 C-48.50791748 129.31267334 -48.32833496 130.12534668 -48.14331055 130.96264648 C-46.22971308 139.74148328 -44.50443183 148.5411247 -42.89770508 157.38061523 C-42.49452446 159.59253983 -42.08425856 161.8030824 -41.67382812 164.01367188 C-41.4136336 165.43742168 -41.15385228 166.86124708 -40.89453125 168.28515625 C-40.6622583 169.55238525 -40.42998535 170.81961426 -40.19067383 172.12524414 C-39.76318469 174.99238745 -39.58114335 177.61116061 -39.6875 180.5 C-47.37021379 185.70717268 -55.75356449 187.6192903 -64.6875 189.5 C-65.74582031 189.72816406 -66.80414063 189.95632813 -67.89453125 190.19140625 C-87.02050003 193.85273628 -87.02050003 193.85273628 -92.26513672 190.48779297 C-94.46399768 187.4148225 -94.78894385 183.98497907 -95.37890625 180.33203125 C-95.52484222 179.49088776 -95.6707782 178.64974426 -95.82113647 177.78311157 C-96.30833766 174.96132886 -96.77886256 172.13700548 -97.25 169.3125 C-97.59510435 167.29868093 -97.94157131 165.28509495 -98.28930664 163.27172852 C-98.84341498 160.06118308 -99.39634355 156.85046613 -99.94487 153.63896179 C-101.89366267 142.23054876 -103.94370579 130.84085896 -105.99356079 119.45025635 C-110.32245693 95.36819558 -114.52656858 71.26526145 -118.6796875 47.15234375 C-118.84507523 46.19327621 -119.01046295 45.23420868 -119.18086243 44.24607849 C-120.05681568 39.16612953 -120.92941095 34.08563356 -121.79785156 29.00439453 C-122.15942825 26.90005188 -122.52107946 24.79572203 -122.8828125 22.69140625 C-123.04933319 21.71171371 -123.21585388 20.73202118 -123.38742065 19.72264099 C-123.54332672 18.81844925 -123.69923279 17.91425751 -123.85986328 16.98266602 C-123.99595001 16.18715836 -124.13203674 15.3916507 -124.27224731 14.57203674 C-124.67968762 12.31736131 -124.67968762 12.31736131 -125.6875 9.5 C-126.125 6.125 -126.125 6.125 -125.6875 2.5 C-120.79654032 -2.87684696 -115.75411847 -3.74520711 -108.76171875 -4.88671875 C-107.70072464 -5.07466507 -106.63973053 -5.26261139 -105.54658508 -5.45625305 C-102.15888335 -6.05118614 -98.76724396 -6.61910907 -95.375 -7.1875 C-93.13708156 -7.57973923 -90.89944747 -7.9736045 -88.66210938 -8.36914062 C-24.31128789 -19.61669437 -24.31128789 -19.61669437 0 0 Z " fill="#010101" transform="translate(392.6875,138.5)"/>
<path d="M0 0 C5.68452792 4.12128275 8.01692754 9.10133036 9.5 15.8125 C10.41891351 22.86488439 9.41039691 28.80889063 5.5 34.8125 C1.56642532 39.27184951 -2.88419386 41.97459981 -8.5 43.8125 C-10.49952182 43.85623195 -12.50063703 43.8629748 -14.5 43.8125 C-15.36228651 38.69382048 -16.21711718 33.57397463 -17.06347656 28.45263672 C-17.35344444 26.69888243 -17.64445257 24.94529981 -17.93652344 23.19189453 C-18.3585705 20.64956339 -18.77385006 18.10620937 -19.1875 15.5625 C-19.31874268 14.77770264 -19.44998535 13.99290527 -19.58520508 13.18432617 C-20.25664129 9.01115425 -20.64192514 5.05673754 -20.5 0.8125 C-13.96710489 -2.19622784 -6.78891694 -2.30338253 0 0 Z " fill="#FAFAFA" transform="translate(349.5,176.1875)"/>
</svg>
